<svg id="图层_3" data-name="图层 3" xmlns="http://www.w3.org/2000/svg" xmlns:xlink="http://www.w3.org/1999/xlink" viewBox="0 0 17.11 34.99"><defs><style>.cls-1{opacity:0.2;}.cls-2{opacity:0.09;}.cls-3{fill:#6d6d68;}.cls-4{fill:#c1c1c1;}.cls-5{fill:#d8d8d8;}.cls-6{fill:#898989;}.cls-7{fill:url(#未命名的渐变_130);}.cls-8{fill:url(#未命名的渐变_130-2);}.cls-9{fill:#a9a9ae;}.cls-10{fill:#939393;}.cls-11{fill:#dbdbdb;}</style><linearGradient id="未命名的渐变_130" x1="5.24" y1="2.95" x2="19.15" y2="2.95" gradientUnits="userSpaceOnUse"><stop offset="0.5" stop-color="#6d6d68"/><stop offset="0.5" stop-color="#919190"/></linearGradient><linearGradient id="未命名的渐变_130-2" x1="5.45" y1="28.67" x2="19.02" y2="28.67" xlink:href="#未命名的渐变_130"/></defs><title>icon_map_bus_off</title><rect class="cls-1" x="0.13" y="0.14" width="16.83" height="34.69" rx="1.19" ry="1.19"/><rect class="cls-2" width="17.11" height="34.99" rx="1.19" ry="1.19"/><rect class="cls-1" x="0.34" y="0.31" width="16.45" height="34.33" rx="1.19" ry="1.19"/><rect class="cls-1" x="0.56" y="0.49" width="16.03" height="33.98" rx="1.18" ry="1.18"/><path class="cls-3" d="M20.22,28.29h-.28V2.69a1.37,1.37,0,0,0-1.37-1.37H5.73A1.37,1.37,0,0,0,4.36,2.69V28.29H4.17a.37.37,0,0,0,0,.73h.19v3.41A1.51,1.51,0,0,0,5.88,34H18.43a1.51,1.51,0,0,0,1.51-1.51V29h.28a.37.37,0,0,0,0-.73Z" transform="translate(-3.64 -0.55)"/><path class="cls-4" d="M18.35,29.59a33.39,33.39,0,0,1-6.18.6,29,29,0,0,1-6.41-.6,1.92,1.92,0,0,1-1.23-1.71V3.06A1.36,1.36,0,0,1,5.9,1.7H18.49a1.36,1.36,0,0,1,1.36,1.36V27.89A2.17,2.17,0,0,1,18.35,29.59Z" transform="translate(-3.64 -0.55)"/><rect class="cls-5" x="2.28" y="3.55" width="12.54" height="23.12" rx="0.82" ry="0.82"/><rect class="cls-6" x="3.59" y="6.56" width="10.17" height="4.71" rx="0.2" ry="0.2"/><rect class="cls-5" x="3.83" y="6.8" width="9.69" height="4.23" rx="0.2" ry="0.2"/><path class="cls-7" d="M18.45,3.57a.73.73,0,0,1-.67.21,40.93,40.93,0,0,0-5.62-.39,46.45,46.45,0,0,0-5.57.38.73.73,0,0,1-.64-.21l-.71-.71a33,33,0,0,1,6.94-.75,32.28,32.28,0,0,1,7,.75Z" transform="translate(-3.64 -0.55)"/><path class="cls-8" d="M19,28.73a.47.47,0,0,1-.33.61,33.6,33.6,0,0,1-6.44.66,31.43,31.43,0,0,1-6.49-.59.4.4,0,0,1-.28-.5l.32-1.15a.46.46,0,0,1,.53-.33,43.9,43.9,0,0,0,5.86.29,41.81,41.81,0,0,0,5.89-.37.47.47,0,0,1,.55.31Z" transform="translate(-3.64 -0.55)"/><path class="cls-3" d="M5.74,26.55a.72.72,0,0,1-.07.3L5,28.12s-.21.35-.21-.41c0-.26,0-3.92,0-3.92h.92Z" transform="translate(-3.64 -0.55)"/><path class="cls-3" d="M5.73,10H4.79V4.24l.75.51a.57.57,0,0,1,.25.48Z" transform="translate(-3.64 -0.55)"/><path class="cls-9" d="M18.48,34.77H6a1.56,1.56,0,0,1-1.56-1.55l0-4.23A2.43,2.43,0,0,0,5.69,30.6a34.26,34.26,0,0,0,7.57.63c3.2,0,5.19-.42,5.8-1a3.49,3.49,0,0,0,1-1.39l0,4.33A1.56,1.56,0,0,1,18.48,34.77Z" transform="translate(-3.64 -0.55)"/><rect class="cls-3" x="1.15" y="9.98" width="1" height="5.08"/><rect class="cls-3" x="1.15" y="15.94" width="1" height="6.08"/><path class="cls-3" d="M18.84,23.79v2.76a.73.73,0,0,0,.07.3l.64,1.27s.21.35.21-.41c0-.26,0-3.92,0-3.92Z" transform="translate(-3.64 -0.55)"/><path class="cls-3" d="M19,4.75a.57.57,0,0,0-.25.48L18.86,10h.94V4.24Z" transform="translate(-3.64 -0.55)"/><rect class="cls-3" x="15.15" y="9.98" width="1" height="5.08"/><rect class="cls-3" x="15.15" y="15.94" width="1" height="6.08"/><path class="cls-4" d="M18.48,34H6a1.56,1.56,0,0,1-1.56-1.55l0-4.23A2.37,2.37,0,0,0,5.7,29.69a24.3,24.3,0,0,0,6.56.63c3.42,0,6.22-.44,6.79-.87a2.58,2.58,0,0,0,1-1.39l0,4.33A1.56,1.56,0,0,1,18.48,34Z" transform="translate(-3.64 -0.55)"/><path class="cls-10" d="M7.58,34l-2.25,0c-.25,0-.56-.9-.56-.9s0-.19,1.1-.19C7.41,32.85,7.58,34,7.58,34Z" transform="translate(-3.64 -0.55)"/><path class="cls-11" d="M5.35,33.94c-.25,0-.56-.9-.56-.9s0-.19,1.1-.19C5.91,32.85,5.35,33.94,5.35,33.94Z" transform="translate(-3.64 -0.55)"/><path class="cls-10" d="M17,34l2.25,0c.25,0,.56-.9.56-.9s0-.19-1.1-.19C17.18,32.85,17,34,17,34Z" transform="translate(-3.64 -0.55)"/><path class="cls-11" d="M19.24,33.94c.25,0,.56-.9.56-.9s0-.19-1.1-.19C18.68,32.85,19.24,33.94,19.24,33.94Z" transform="translate(-3.64 -0.55)"/><rect class="cls-4" x="4.95" y="33.6" width="6.63" height="0.63"/><rect class="cls-6" x="3.59" y="18.19" width="10.17" height="4.71" rx="0.2" ry="0.2"/><rect class="cls-5" x="3.83" y="18.43" width="9.69" height="4.23" rx="0.2" ry="0.2"/></svg>