<svg id="图层_5" data-name="图层 5" xmlns="http://www.w3.org/2000/svg" xmlns:xlink="http://www.w3.org/1999/xlink" viewBox="0 0 17.88 35.06"><defs><style>.cls-1{opacity:0.09;}.cls-2{opacity:0.15;}.cls-3{opacity:0.2;}.cls-4{opacity:0.25;}.cls-5{fill:#898989;}.cls-6{fill:#c1c1c1;}.cls-7{fill:#3f3f3f;}.cls-8{fill:url(#未命名的渐变_130);}.cls-9{fill:url(#未命名的渐变_130-2);}.cls-10{fill:#6d6d68;}.cls-11{fill:#b7b7b7;}.cls-12{fill:#9b9b9b;opacity:0.23;}.cls-13{fill:#afafaf;}.cls-14{fill:#ccc;}.cls-15{fill:#757575;}</style><linearGradient id="未命名的渐变_130" x1="5.69" y1="22.83" x2="18.86" y2="22.83" gradientUnits="userSpaceOnUse"><stop offset="0.5" stop-color="#6d6d68"/><stop offset="0.5" stop-color="#919190"/></linearGradient><linearGradient id="未命名的渐变_130-2" x1="5.72" y1="7.99" x2="18.89" y2="7.99" xlink:href="#未命名的渐变_130"/></defs><title>icon_map_taxi_off</title><path class="cls-1" d="M15.95,35.57H8.44a5,5,0,0,1-5.19-5.19V5.66A4.87,4.87,0,0,1,8.41.51H16c3.55,0,5.15,2.32,5.15,5.15V30.39A4.88,4.88,0,0,1,15.95,35.57Z" transform="translate(-3.26 -0.51)"/><path class="cls-2" d="M15.82,35.34H8.57a4.89,4.89,0,0,1-5.19-5.19V5.89A4.8,4.8,0,0,1,8.54.75h7.32C19.65.75,21,3.06,21,5.89V30.15C21,33,19.49,35.34,15.82,35.34Z" transform="translate(-3.26 -0.51)"/><path class="cls-3" d="M15.63,35.07H8.76c-3.71,0-5.14-2.31-5.14-5.14V6.12C3.62,3.31,5,1,8.72,1h6.94c4,0,5.11,2.3,5.11,5.11v23.8C20.77,32.75,19.53,35.07,15.63,35.07Z" transform="translate(-3.26 -0.51)"/><path class="cls-4" d="M15.83,34.79H8.56c-3.32,0-4.75-2.14-4.75-4.75V6c0-2.59,1.3-4.72,4.72-4.72h7.34c3.81,0,4.72,2.12,4.72,4.72V30C20.58,32.65,19.26,34.79,15.83,34.79Z" transform="translate(-3.26 -0.51)"/><path class="cls-5" d="M16.19,34.69H8.33A4.16,4.16,0,0,1,4.2,30.52V7.12c0-2.29.34-5.72,3.12-5.72l9.58.06c3.24,0,3.42,3.37,3.42,5.66V30.52A4.16,4.16,0,0,1,16.19,34.69Z" transform="translate(-3.26 -0.51)"/><path class="cls-6" d="M20,23.3l-.42.08V4.61a2.2,2.2,0,0,0-2.19-2.19H7.09A2.2,2.2,0,0,0,4.9,4.61v18.8l-.56-.1a.49.49,0,0,0-.18,1l.74.14v5.41C4.9,31,7,33,9.09,33h6.35c2,0,4.19-2,4.19-3.19V24.38l.6-.11a.49.49,0,1,0-.18-1Z" transform="translate(-3.26 -0.51)"/><rect class="cls-7" x="5.77" y="32.8" width="6.46" height="0.48"/><path class="cls-8" d="M18.82,23.59a.57.57,0,0,1-.3.71,17.27,17.27,0,0,1-6.26.85A17.44,17.44,0,0,1,6,24.32a.57.57,0,0,1-.28-.7l1-2.73a.56.56,0,0,1,.68-.36,23.41,23.41,0,0,0,4.88.38,23.8,23.8,0,0,0,4.93-.38.56.56,0,0,1,.68.36Z" transform="translate(-3.26 -0.51)"/><path class="cls-9" d="M18.85,7.69a.57.57,0,0,0-.3-.71,18,18,0,0,0-6.23-.76A18.64,18.64,0,0,0,6,7a.57.57,0,0,0-.28.7l1,1.73a.56.56,0,0,0,.68.36,22.87,22.87,0,0,1,4.88-.4,23.26,23.26,0,0,1,4.93.4.56.56,0,0,0,.68-.36Z" transform="translate(-3.26 -0.51)"/><path class="cls-10" d="M6.39,15.88H5.29a.28.28,0,0,0-.28.28l0,6.21s0,.36.18.36a25.5,25.5,0,0,0,1.38-2.95,1.43,1.43,0,0,0,.14-.62l0-3A.28.28,0,0,0,6.39,15.88Z" transform="translate(-3.26 -0.51)"/><path class="cls-10" d="M6.37,14.84H5.28A.28.28,0,0,1,5,14.56L5,8.35S5,8,5.16,8a17.21,17.21,0,0,1,1.38,2.19,1.43,1.43,0,0,1,.14.62v3.76A.28.28,0,0,1,6.37,14.84Z" transform="translate(-3.26 -0.51)"/><path class="cls-10" d="M18.26,15.84h1.09a.28.28,0,0,1,.28.28l0,6.21s0,.36-.18.36a25.5,25.5,0,0,1-1.38-2.95,1.43,1.43,0,0,1-.14-.62l0-3A.28.28,0,0,1,18.26,15.84Z" transform="translate(-3.26 -0.51)"/><path class="cls-10" d="M18.28,14.81h1.09a.28.28,0,0,0,.28-.28l0-6.21s0-.36-.18-.36a17.21,17.21,0,0,0-1.38,2.19,1.43,1.43,0,0,0-.14.62v3.76A.28.28,0,0,0,18.28,14.81Z" transform="translate(-3.26 -0.51)"/><path class="cls-11" d="M8.64,33.78a2.7,2.7,0,0,1-2.21-.06,1.93,1.93,0,0,1-1-1.84.58.58,0,0,1,.71,0c.33.18.53.42,1,.65s.86.28,1.09.42A.9.9,0,0,1,8.64,33.78Z" transform="translate(-3.26 -0.51)"/><ellipse class="cls-12" cx="7" cy="33.13" rx="0.32" ry="0.39" transform="translate(-29.91 28.81) rotate(-71.61)"/><path class="cls-11" d="M15.85,33.78a2.7,2.7,0,0,0,2.21-.06,1.93,1.93,0,0,0,1-1.84.58.58,0,0,0-.71,0c-.33.18-.53.42-1,.65s-.86.28-1.09.42A.9.9,0,0,0,15.85,33.78Z" transform="translate(-3.26 -0.51)"/><ellipse class="cls-12" cx="17.48" cy="33.13" rx="0.39" ry="0.32" transform="translate(-12.82 6.69) rotate(-18.39)"/><path class="cls-11" d="M7.82,1.4c-.68,0-1.33.25-1.29.71s.84.37,1.5.23,1.13-.42,1.13-.5C9.16,1.5,8.5,1.4,7.82,1.4Z" transform="translate(-3.26 -0.51)"/><path class="cls-11" d="M16.71,1.52c-.63,0-1.24.09-1.24.37,0,.07.39.3,1,.42s1.36.09,1.39-.19S17.34,1.52,16.71,1.52Z" transform="translate(-3.26 -0.51)"/><polygon class="cls-3" points="6.32 16.76 7.07 15.49 12.57 15.53 12.65 16.86 6.32 16.76"/><path class="cls-13" d="M9.59,17l-.68.74a.32.32,0,0,0-.06.33l.36.9a.32.32,0,0,0,.3.2l5.84,0,.54-1.79L15.06,17Z" transform="translate(-3.26 -0.51)"/><rect class="cls-14" x="6.29" y="16.29" width="5.6" height="1.2" rx="0.3" ry="0.3"/><path class="cls-15" d="M9.4,30.58V28H8.61v-.34h1.9V28H9.72v2.57Z" transform="translate(-3.26 -0.51)"/><path class="cls-15" d="M10.32,30.58l.92-2.92h.34l1,2.92H12.2l-.28-.88h-1l-.26.88Zm.69-1.2h.81l-.25-.81q-.12-.37-.17-.6a4.29,4.29,0,0,1-.13.56Z" transform="translate(-3.26 -0.51)"/><path class="cls-15" d="M12.57,30.58l.93-1.52-.82-1.4h.38l.44.75a3.41,3.41,0,0,1,.19.36,3.55,3.55,0,0,1,.19-.33l.48-.77h.34L13.86,29l.9,1.54h-.39l-.6-1-.1-.2-.12.22-.6,1Z" transform="translate(-3.26 -0.51)"/><path class="cls-15" d="M15.1,30.58V27.67h.32v2.92Z" transform="translate(-3.26 -0.51)"/></svg>