<svg id="图层_2" data-name="图层 2" xmlns="http://www.w3.org/2000/svg" xmlns:xlink="http://www.w3.org/1999/xlink" viewBox="0 0 21.95 35.46"><defs><style>.cls-1{opacity:0.2;}.cls-2{opacity:0.09;}.cls-3{fill:#349594;}.cls-4{fill:#45beb9;}.cls-5{fill:url(#未命名的渐变_183);}.cls-6{fill:url(#未命名的渐变_190);}.cls-7{fill:url(#未命名的渐变_160);}.cls-8{fill:url(#未命名的渐变_160-2);}.cls-9{fill:url(#未命名的渐变_160-3);}.cls-10{fill:url(#未命名的渐变_160-4);}.cls-11{fill:url(#未命名的渐变_183-2);}.cls-12{fill:#c61e27;}.cls-13{fill:#9ae8e4;}.cls-14{fill:#40706c;}.cls-15{fill:url(#未命名的渐变_190-2);}.cls-16{fill:url(#未命名的渐变_183-3);}</style><linearGradient id="未命名的渐变_183" x1="6.43" y1="24.27" x2="17.92" y2="24.27" gradientUnits="userSpaceOnUse"><stop offset="0.5" stop-color="#3a5c5a"/><stop offset="0.5" stop-color="#4a6665"/></linearGradient><linearGradient id="未命名的渐变_190" x1="7.67" y1="13.36" x2="16.67" y2="13.36" gradientUnits="userSpaceOnUse"><stop offset="0.04" stop-color="#59d4cf"/><stop offset="1" stop-color="#5ddada"/></linearGradient><linearGradient id="未命名的渐变_160" x1="4.71" y1="11.25" x2="6.9" y2="11.25" gradientUnits="userSpaceOnUse"><stop offset="0" stop-color="#3a5c5a"/><stop offset="1" stop-color="#4a6665"/></linearGradient><linearGradient id="未命名的渐变_160-2" x1="4.71" y1="19.01" x2="6.9" y2="19.01" xlink:href="#未命名的渐变_160"/><linearGradient id="未命名的渐变_160-3" x1="17.47" y1="11.29" x2="19.65" y2="11.29" xlink:href="#未命名的渐变_160"/><linearGradient id="未命名的渐变_160-4" x1="17.47" y1="19.04" x2="19.65" y2="19.04" xlink:href="#未命名的渐变_160"/><linearGradient id="未命名的渐变_183-2" x1="6.09" y1="4.89" x2="18.41" y2="4.89" xlink:href="#未命名的渐变_183"/><linearGradient id="未命名的渐变_190-2" x1="4.67" y1="29.31" x2="19.84" y2="29.31" xlink:href="#未命名的渐变_190"/><linearGradient id="未命名的渐变_183-3" x1="7.43" y1="15.51" x2="14.62" y2="15.51" xlink:href="#未命名的渐变_183"/></defs><title>icon_map_driven_off</title><path class="cls-1" d="M17,35.18a13.34,13.34,0,0,1-4.88.6,15,15,0,0,1-4.35-.5c-2.9-.87-5.07-2.92-5.07-5.54V5.49c0-2,1.59-3.11,4.4-4.3a10.72,10.72,0,0,1,5-.87,11.08,11.08,0,0,1,5,.87c1.45.69,4.49,2.38,4.45,4.3V29.73C21.56,32.35,19.82,33.94,17,35.18Z" transform="translate(-1.22 -0.31)"/><path class="cls-2" d="M16.9,34.89a12.92,12.92,0,0,1-4.76.59A14.5,14.5,0,0,1,7.89,35c-2.83-.86-5-2.87-5-5.45V5.69c0-1.93,1.56-3.06,4.29-4.23A10.39,10.39,0,0,1,12.09.6a10.74,10.74,0,0,1,4.9.86c1.41.68,4.39,2.34,4.34,4.23V29.53C21.33,32.11,19.63,33.68,16.9,34.89Z" transform="translate(-1.22 -0.31)"/><path class="cls-1" d="M16.71,34.65a12.14,12.14,0,0,1-4.58.58,13.62,13.62,0,0,1-4.08-.49C5.34,33.9,3.3,31.91,3.3,29.37V5.87c0-1.91,1.5-3,4.12-4.17A9.77,9.77,0,0,1,12.09.85a10.1,10.1,0,0,1,4.71.84C18.16,2.36,21,4,21,5.87v23.5C21,31.91,19.34,33.45,16.71,34.65Z" transform="translate(-1.22 -0.31)"/><path class="cls-1" d="M16.57,34.35a11.6,11.6,0,0,1-4.43.57,13,13,0,0,1-3.95-.48c-2.63-.83-4.61-2.78-4.61-5.27V6.09c0-1.87,1.45-3,4-4.1a9.35,9.35,0,0,1,4.52-.83A9.67,9.67,0,0,1,16.65,2c1.32.65,4.08,2.27,4,4.1V29.16C20.69,31.66,19.11,33.17,16.57,34.35Z" transform="translate(-1.22 -0.31)"/><path class="cls-3" d="M16.47,34.07a11,11,0,0,1-4.21.54,12.29,12.29,0,0,1-3.75-.46c-2.5-.79-4.37-2.66-4.37-5v-23c0-1.79,1.37-2.83,3.79-3.91a8.84,8.84,0,0,1,4.29-.79,9.14,9.14,0,0,1,4.33.79c1.25.63,3.88,2.17,3.83,3.91v23C20.39,31.5,18.89,32.95,16.47,34.07Z" transform="translate(-1.22 -0.31)"/><path class="cls-4" d="M16.45,32.91a16.61,16.61,0,0,1-4.21.54A9.7,9.7,0,0,1,8.49,33a6.82,6.82,0,0,1-4.37-6l0-19.9C4.16,5.26,5.54,4.22,8,3.14a8.84,8.84,0,0,1,4.29-.79,9.14,9.14,0,0,1,4.33.79c1.25.63,3.88,2.17,3.83,3.91l0,19.9A6.75,6.75,0,0,1,16.45,32.91Z" transform="translate(-1.22 -0.31)"/><path class="cls-5" d="M17.91,25.42a.82.82,0,0,1-.26.76c-.63.56-2.23,1.6-5.5,1.6-3.85,0-5.13-.9-5.55-1.43a.8.8,0,0,1-.16-.62l.63-4.27A.82.82,0,0,1,8,20.77a26.52,26.52,0,0,0,4.11.31,25.93,25.93,0,0,0,4.13-.31.82.82,0,0,1,.94.66Z" transform="translate(-1.22 -0.31)"/><path class="cls-6" d="M16.67,17.24a2.15,2.15,0,0,1-1.43,2.05,9.25,9.25,0,0,1-2.95.39,11.11,11.11,0,0,1-3.08-.35,2.17,2.17,0,0,1-1.55-2.09V9.57A2.17,2.17,0,0,1,9,7.55a8.58,8.58,0,0,1,3.15-.49,7.93,7.93,0,0,1,3.23.61,2.16,2.16,0,0,1,1.27,2Z" transform="translate(-1.22 -0.31)"/><path class="cls-7" d="M6.3,14.43h-1a.55.55,0,0,1-.6-.48s0-4.94,0-5.22c0-.85.51-.64.51-.64L6.75,9.51a.43.43,0,0,1,.15.32V14A.55.55,0,0,1,6.3,14.43Z" transform="translate(-1.22 -0.31)"/><path class="cls-8" d="M6.3,15.38h-1a.55.55,0,0,0-.6.48s0,5.94,0,6.22c0,1,.67.34.67.34L6.74,19.5a1.64,1.64,0,0,0,.16-.7V15.86A.55.55,0,0,0,6.3,15.38Z" transform="translate(-1.22 -0.31)"/><path class="cls-9" d="M18.07,14.47h1a.55.55,0,0,0,.59-.48s0-4.94,0-5.22c0-.85-.51-.64-.51-.64L17.62,9.54a.43.43,0,0,0-.15.32V14A.55.55,0,0,0,18.07,14.47Z" transform="translate(-1.22 -0.31)"/><path class="cls-10" d="M18.07,15.41h1a.55.55,0,0,1,.59.48s0,5.94,0,6.22c0,1-.67.34-.67.34l-1.35-2.91a1.65,1.65,0,0,1-.16-.7V15.89A.55.55,0,0,1,18.07,15.41Z" transform="translate(-1.22 -0.31)"/><path class="cls-11" d="M18.36,5.35a.55.55,0,0,0-.17-.68,10.16,10.16,0,0,0-5.93-1.81,10.3,10.3,0,0,0-6,1.81.55.55,0,0,0-.17.68l.58,1.24a.55.55,0,0,0,.71.28A12.83,12.83,0,0,1,12.27,5.8a12.5,12.5,0,0,1,4.8,1.06.55.55,0,0,0,.71-.27Z" transform="translate(-1.22 -0.31)"/><path class="cls-4" d="M1.59,22.26s.37-.13.53,0a4.47,4.47,0,0,0,2.23,1.2l.06,1.09H2.86s-1.16-.19-1.47-.94C.91,22.49,1.59,22.26,1.59,22.26Z" transform="translate(-1.22 -0.31)"/><path class="cls-4" d="M22.8,22.3s-.37-.13-.53,0A4.47,4.47,0,0,1,20,23.53L20,24.63h1.56s1.16-.19,1.47-.94C23.48,22.53,22.8,22.3,22.8,22.3Z" transform="translate(-1.22 -0.31)"/><path class="cls-12" d="M8,3.14,7.9,2.2A7.82,7.82,0,0,0,4.65,4.42l.79.24A21.29,21.29,0,0,1,8,3.14Z" transform="translate(-1.22 -0.31)"/><path class="cls-12" d="M16.23,3.12l.13-.94A7.82,7.82,0,0,1,19.61,4.4l-.79.24A21.29,21.29,0,0,0,16.23,3.12Z" transform="translate(-1.22 -0.31)"/><path class="cls-13" d="M8.57,33A6.11,6.11,0,0,1,5.7,30.88l-.59,1A6.73,6.73,0,0,0,8.16,34Z" transform="translate(-1.22 -0.31)"/><path class="cls-13" d="M15.9,33.06a5.92,5.92,0,0,0,2.91-2l.55.87a6.73,6.73,0,0,1-3.05,2.13Z" transform="translate(-1.22 -0.31)"/><polygon class="cls-14" points="12.9 33.91 9.12 33.94 8.84 33.39 13.26 33.39 12.9 33.91"/><path class="cls-15" d="M19.83,28.39a1.09,1.09,0,0,1,0,.23c-.16.71-1.32,4.47-7.7,4.47a7.78,7.78,0,0,1-7.32-4.34,1.16,1.16,0,0,1-.11-.52V25.83a.29.29,0,0,1,.51-.19c.82,1,2.78,2.49,7.1,2.49s6.22-1.49,7-2.47a.29.29,0,0,1,.52.19Z" transform="translate(-1.22 -0.31)"/><rect class="cls-16" x="7.43" y="14.2" width="7.19" height="2.63" rx="0.76" ry="0.76"/></svg>