<svg id="图层_4" data-name="图层 4" xmlns="http://www.w3.org/2000/svg" xmlns:xlink="http://www.w3.org/1999/xlink" viewBox="0 0 17.11 34.99"><defs><style>.cls-1{opacity:0.09;}.cls-2{opacity:0.2;}.cls-3{opacity:0.25;}.cls-4{fill:#cd5d24;}.cls-5{fill:#f47401;}.cls-6{fill:#f49741;}.cls-7{fill:url(#未命名的渐变_146);}.cls-8{fill:url(#未命名的渐变_146-2);}.cls-9{fill:#2ca6ff;}.cls-10{fill:#3ba1ff;}.cls-11{fill:#a9a9ae;}.cls-12{fill:#fdd449;}.cls-13{fill:#fb3318;}.cls-14{fill:#fff;}</style><linearGradient id="未命名的渐变_146" x1="5.27" y1="2.95" x2="18.79" y2="2.95" gradientUnits="userSpaceOnUse"><stop offset="0.5" stop-color="#35a2fd"/><stop offset="0.5" stop-color="#78bef3"/></linearGradient><linearGradient id="未命名的渐变_146-2" x1="5.37" y1="28.67" x2="18.94" y2="28.67" xlink:href="#未命名的渐变_146"/></defs><title>icon_map_bus_on</title><path class="cls-1" d="M19.56.55H4.83A1.19,1.19,0,0,0,3.64,1.73V34.35a1.19,1.19,0,0,0,1.19,1.19H19.56a1.19,1.19,0,0,0,1.19-1.19V1.73A1.19,1.19,0,0,0,19.56.55Zm1,33.64a1.19,1.19,0,0,1-1.19,1.19H5a1.19,1.19,0,0,1-1.19-1.19V1.87A1.19,1.19,0,0,1,5,.68H19.41A1.19,1.19,0,0,1,20.6,1.87Z" transform="translate(-3.64 -0.55)"/><rect class="cls-2" x="0.12" y="0.14" width="16.83" height="34.69" rx="1.19" ry="1.19"/><path class="cls-2" d="M19.25.85H5.17A1.19,1.19,0,0,0,4,2V34a1.19,1.19,0,0,0,1.19,1.19H19.25A1.19,1.19,0,0,0,20.43,34V2A1.19,1.19,0,0,0,19.25.85Zm1,33A1.19,1.19,0,0,1,19,35H5.38A1.19,1.19,0,0,1,4.2,33.83V2.22A1.19,1.19,0,0,1,5.38,1H19a1.19,1.19,0,0,1,1.18,1.18Z" transform="translate(-3.64 -0.55)"/><rect class="cls-3" x="0.56" y="0.49" width="16.03" height="33.98" rx="1.18" ry="1.18"/><path class="cls-4" d="M20.22,28.29h-.28V2.69a1.37,1.37,0,0,0-1.37-1.37H5.73A1.37,1.37,0,0,0,4.36,2.69V28.29H4.17a.37.37,0,0,0,0,.73h.19v3.41A1.51,1.51,0,0,0,5.88,34H18.43a1.51,1.51,0,0,0,1.51-1.51V29h.28a.37.37,0,0,0,0-.73Z" transform="translate(-3.64 -0.55)"/><path class="cls-5" d="M18.35,29.59a33.39,33.39,0,0,1-6.18.6,29,29,0,0,1-6.41-.6,1.92,1.92,0,0,1-1.23-1.71V3.06A1.36,1.36,0,0,1,5.91,1.7H18.49a1.36,1.36,0,0,1,1.36,1.36V27.89A2.17,2.17,0,0,1,18.35,29.59Z" transform="translate(-3.64 -0.55)"/><rect class="cls-6" x="2.24" y="3.55" width="12.54" height="23.12" rx="0.82" ry="0.82"/><rect class="cls-4" x="3.51" y="6.56" width="10.17" height="4.71" rx="0.2" ry="0.2"/><rect class="cls-6" x="3.75" y="6.8" width="9.69" height="4.23" rx="0.2" ry="0.2"/><path class="cls-7" d="M18.36,3.57a.73.73,0,0,1-.67.21c-.69-.13-3.28-.11-5.59-.11-2.12,0-4.87,0-5.6.09a.73.73,0,0,1-.64-.21l-.58-.68s-.05-.31.53-.42a42.33,42.33,0,0,1,6.27-.35,47.16,47.16,0,0,1,6.18.35c.58.09.53.44.53.44Z" transform="translate(-3.64 -0.55)"/><path class="cls-8" d="M18.91,28.73a.47.47,0,0,1-.33.61,33.6,33.6,0,0,1-6.44.66,31.43,31.43,0,0,1-6.49-.59.4.4,0,0,1-.28-.5l.32-1.15a.46.46,0,0,1,.53-.33,43.9,43.9,0,0,0,5.86.29A41.81,41.81,0,0,0,18,27.35a.47.47,0,0,1,.55.31Z" transform="translate(-3.64 -0.55)"/><path class="cls-9" d="M5.66,26.55a.72.72,0,0,1-.07.3L5,28.12s-.21.35-.21-.41c0-.26,0-3.92,0-3.92h.92Z" transform="translate(-3.64 -0.55)"/><path class="cls-10" d="M5.64,10H4.71V4.24l.75.51a.57.57,0,0,1,.25.48Z" transform="translate(-3.64 -0.55)"/><path class="cls-11" d="M18.4,34.77H6A1.56,1.56,0,0,1,4.4,33.22l0-4.23A2.43,2.43,0,0,0,5.6,30.6a34.26,34.26,0,0,0,7.57.63c3.2,0,5.19-.42,5.8-1a3.49,3.49,0,0,0,1-1.39l0,4.33A1.56,1.56,0,0,1,18.4,34.77Z" transform="translate(-3.64 -0.55)"/><rect class="cls-10" x="1.07" y="9.98" width="1" height="5.08"/><rect class="cls-10" x="1.07" y="15.94" width="1" height="6.08"/><path class="cls-10" d="M18.76,23.79v2.76a.73.73,0,0,0,.07.3l.64,1.27s.21.35.21-.41c0-.26,0-3.92,0-3.92Z" transform="translate(-3.64 -0.55)"/><path class="cls-10" d="M19,4.75a.57.57,0,0,0-.25.48L18.78,10h.94V4.24Z" transform="translate(-3.64 -0.55)"/><rect class="cls-10" x="15.07" y="9.98" width="1" height="5.08"/><rect class="cls-10" x="15.07" y="15.94" width="1" height="6.08"/><path class="cls-6" d="M18.4,34H6A1.56,1.56,0,0,1,4.4,32.41l0-4.23a2.37,2.37,0,0,0,1.24,1.51,24.3,24.3,0,0,0,6.56.63c3.42,0,6.22-.44,6.79-.87a2.58,2.58,0,0,0,1-1.39l0,4.33A1.56,1.56,0,0,1,18.4,34Z" transform="translate(-3.64 -0.55)"/><path class="cls-12" d="M7.49,34l-2.25,0c-.25,0-.56-.9-.56-.9s0-.19,1.1-.19C7.33,32.85,7.49,34,7.49,34Z" transform="translate(-3.64 -0.55)"/><path class="cls-13" d="M5.26,33.94c-.25,0-.56-.9-.56-.9s0-.19,1.1-.19C5.83,32.85,5.26,33.94,5.26,33.94Z" transform="translate(-3.64 -0.55)"/><path class="cls-12" d="M16.93,34l2.25,0c.25,0,.56-.9.56-.9s0-.19-1.1-.19C17.1,32.85,16.93,34,16.93,34Z" transform="translate(-3.64 -0.55)"/><path class="cls-13" d="M19.16,33.94c.25,0,.56-.9.56-.9s0-.19-1.1-.19C18.6,32.85,19.16,33.94,19.16,33.94Z" transform="translate(-3.64 -0.55)"/><rect class="cls-14" x="4.86" y="33.6" width="6.63" height="0.63"/><rect class="cls-4" x="3.51" y="18.19" width="10.17" height="4.71" rx="0.2" ry="0.2"/><rect class="cls-6" x="3.75" y="18.43" width="9.69" height="4.23" rx="0.2" ry="0.2"/></svg>