<?xml version="1.0" encoding="utf-8"?>
<!-- Generator: Adobe Illustrator 21.1.0, SVG Export Plug-In . SVG Version: 6.00 Build 0)  -->
<svg version="1.1" xmlns="http://www.w3.org/2000/svg" xmlns:xlink="http://www.w3.org/1999/xlink" x="0px" y="0px"
	 viewBox="0 0 24 36" style="enable-background:new 0 0 24 36;" xml:space="preserve">
<style type="text/css">
	.st0{display:none;}
	.st1{display:inline;}
	.st2{opacity:0.2;}
	.st3{opacity:9.000000e-02;}
	.st4{fill:#878782;}
	.st5{fill:#D8D8D8;}
	.st6{fill:url(#SVGID_1_);}
	.st7{fill:#EFEFEF;}
	.st8{fill:#6D6D68;}
	.st9{fill:url(#SVGID_2_);}
	.st10{fill:#424241;}
	.st11{fill:#C1C1C1;}
	.st12{fill:url(#SVGID_3_);}
	.st13{fill:#349594;}
	.st14{fill:#45BEB9;}
	.st15{fill:url(#SVGID_4_);}
	.st16{fill:url(#SVGID_5_);}
	.st17{fill:url(#SVGID_6_);}
	.st18{fill:url(#SVGID_7_);}
	.st19{fill:url(#SVGID_8_);}
	.st20{fill:url(#SVGID_9_);}
	.st21{fill:url(#SVGID_10_);}
	.st22{fill:#C61E27;}
	.st23{fill:#9AE8E4;}
	.st24{fill:#40706C;}
	.st25{fill:url(#SVGID_11_);}
	.st26{fill:url(#SVGID_12_);}
	.st27{fill:#898989;}
	.st28{fill:url(#SVGID_13_);}
	.st29{fill:url(#SVGID_14_);}
	.st30{fill:#A9A9AE;}
	.st31{fill:#939393;}
	.st32{fill:#DBDBDB;}
	.st33{opacity:0.25;}
	.st34{fill:#CD5D24;}
	.st35{fill:#F47401;}
	.st36{fill:#F49741;}
	.st37{fill:url(#SVGID_15_);}
	.st38{fill:url(#SVGID_16_);}
	.st39{fill:#2CA6FF;}
	.st40{fill:#3BA1FF;}
	.st41{fill:#FDD449;}
	.st42{fill:#FB3318;}
	.st43{fill:#FFFFFF;}
	.st44{opacity:0.15;}
	.st45{fill:#3F3F3F;}
	.st46{fill:url(#SVGID_17_);}
	.st47{fill:url(#SVGID_18_);}
	.st48{fill:#B7B7B7;}
	.st49{opacity:0.23;fill:#9B9B9B;}
	.st50{fill:#AFAFAF;}
	.st51{fill:#CCCCCC;}
	.st52{fill:#757575;}
	.st53{fill:#EFB447;}
	.st54{fill:#FFDC3D;}
	.st55{fill:#827526;}
	.st56{fill:url(#SVGID_19_);}
	.st57{fill:url(#SVGID_20_);}
	.st58{fill:#334355;}
	.st59{fill:url(#SVGID_21_);}
	.st60{opacity:0.23;fill:#FBFFF0;}
	.st61{fill:url(#SVGID_22_);}
	.st62{fill:#8E2201;}
	.st63{fill:#FFFFD9;}
	.st64{fill:#DCC491;}
	.st65{fill:#866C1A;}
	.st66{display:inline;fill:#1893EF;}
	.st67{display:inline;fill:#BA0F0F;}
	.st68{display:inline;fill:#FFFFFF;}
	.st69{display:inline;opacity:0.1;}
	.st70{display:inline;opacity:0.25;}
	.st71{fill:#E08D12;}
	.st72{fill:#BA2706;}
	.st73{fill:url(#SVGID_23_);}
	.st74{fill:url(#SVGID_24_);}
	.st75{fill:#F7D408;}
	.st76{fill:url(#SVGID_25_);}
	.st77{fill:url(#SVGID_26_);}
	.st78{fill:#F9F9F9;}
	.st79{fill:#FCFCFC;}
	.st80{fill:#2FA013;}
	.st81{fill:url(#SVGID_27_);}
	.st82{fill:url(#SVGID_28_);}
	.st83{fill:#27E227;}
	.st84{fill:url(#SVGID_29_);}
	.st85{fill:url(#SVGID_30_);}
	.st86{fill:#BC3C3C;}
	.st87{fill:#ED760A;}
	.st88{fill:url(#SVGID_31_);}
	.st89{fill:url(#SVGID_32_);}
	.st90{fill:#EF4343;}
	.st91{fill:url(#SVGID_33_);}
	.st92{fill:url(#SVGID_34_);}
	.st93{opacity:0.1;}
	.st94{fill:url(#SVGID_35_);}
	.st95{fill:url(#SVGID_36_);}
</style>
<g id="图层_1" class="st0">
	<g class="st1">
		<g>
			<path class="st2" d="M16.8,35.2c0,0-1.3,0.6-4.9,0.6c-2.9,0-4.3-0.5-4.3-0.5c-2.9-0.9-5.1-2.9-5.1-5.5V5.5c0-2,1.6-3.1,4.4-4.3
				c0,0,1.5-0.9,5-0.9s5,0.9,5,0.9c1.4,0.7,4.5,2.4,4.4,4.3v24.2C21.3,32.3,19.6,33.9,16.8,35.2z"/>
			<path class="st3" d="M16.6,34.9c0,0-1.3,0.6-4.8,0.6c-2.8,0-4.2-0.5-4.2-0.5c-2.8-0.9-5-2.9-5-5.4V5.7c0-1.9,1.6-3.1,4.3-4.2
				c0,0,1.5-0.9,4.9-0.9s4.9,0.9,4.9,0.9c1.4,0.7,4.4,2.3,4.3,4.2v23.8C21.1,32.1,19.4,33.7,16.6,34.9z"/>
			<path class="st2" d="M16.5,34.7c0,0-1.2,0.6-4.6,0.6c-2.7,0-4.1-0.5-4.1-0.5C5.1,33.9,3,31.9,3,29.4V5.9c0-1.9,1.5-3,4.1-4.2
				c0,0,1.4-0.8,4.7-0.8s4.7,0.8,4.7,0.8c1.4,0.7,4.2,2.3,4.2,4.2v23.5C20.7,31.9,19.1,33.5,16.5,34.7z"/>
			<path class="st2" d="M16.3,34.4c0,0-1.2,0.6-4.4,0.6c-2.6,0-3.9-0.5-3.9-0.5c-2.6-0.8-4.6-2.8-4.6-5.3V6.1c0-1.9,1.4-3,4-4.1
				c0,0,1.4-0.8,4.5-0.8S16.4,2,16.4,2c1.3,0.7,4.1,2.3,4,4.1v23.1C20.4,31.7,18.9,33.2,16.3,34.4z"/>
			<path class="st2" d="M16.4,2c0,0-1.4-0.8-4.6-0.8C8.7,1.2,7.3,2,7.3,2c-2.5,1.1-4,2.2-4,4.1v23.1c0,2.5,2,4.4,4.6,5.3
				c0,0,1.4,0.5,3.9,0.5c3.2,0,4.4-0.6,4.4-0.6c2.5-1.2,4.1-2.7,4.1-5.2V6.1C20.5,4.3,17.7,2.6,16.4,2z M20.1,29.1
				c0,2.4-1.5,3.8-3.9,5c0,0-1.1,0.5-4.2,0.5c-2.5,0-3.8-0.5-3.8-0.5c-2.5-0.8-4.4-2.7-4.4-5v-23c0-1.8,1.4-2.8,3.8-3.9
				c0,0,1.3-0.8,4.3-0.8s4.3,0.8,4.3,0.8c1.2,0.6,3.9,2.2,3.8,3.9V29.1z"/>
		</g>
		<path class="st4" d="M16.2,34.1c0,0-1.1,0.5-4.2,0.5c-2.5,0-3.8-0.5-3.8-0.5c-2.5-0.8-4.4-2.7-4.4-5v-23c0-1.8,1.4-2.8,3.8-3.9
			c0,0,1.3-0.8,4.3-0.8s4.3,0.8,4.3,0.8c1.2,0.6,3.9,2.2,3.8,3.9v23C20.1,31.5,18.6,32.9,16.2,34.1z"/>
		<path class="st5" d="M22.5,22.3c0,0-0.4-0.1-0.5,0c-0.2,0.2-0.6,0.5-0.9,0.7c-0.4,0.2-0.7,0.3-1,0.4l0-16.4c0-1.7-2.6-3.3-3.8-3.9
			c0,0-1.3-0.8-4.3-0.8S7.7,3.1,7.7,3.1C5.3,4.2,3.9,5.3,3.9,7.1l0,16.4c-0.2-0.1-0.6-0.2-1.1-0.4c-0.3-0.2-0.7-0.5-0.9-0.7
			c-0.2-0.2-0.5,0-0.5,0s-0.7,0.2-0.2,1.4c0.3,0.8,1.5,0.9,1.5,0.9h1.3l0,2.4c0,2.4,1.9,5.2,4.4,6c0,0,1.3,0.5,3.8,0.5
			c2.9-0.1,4.2-0.5,4.2-0.5c2.4-1.1,3.9-3.6,3.9-6l0-2.3h1.2c0,0,1.2-0.2,1.5-0.9C23.2,22.5,22.5,22.3,22.5,22.3z"/>
		<linearGradient id="SVGID_1_" gradientUnits="userSpaceOnUse" x1="6.1794" y1="24.2685" x2="17.673" y2="24.2685">
			<stop  offset="0.5" style="stop-color:#6D6D68"/>
			<stop  offset="0.5" style="stop-color:#919190"/>
		</linearGradient>
		<path class="st6" d="M17.7,25.4c0.1,0.3,0,0.6-0.3,0.8c-0.6,0.6-2.2,1.6-5.5,1.6c-3.8,0-5.1-0.9-5.6-1.4c-0.1-0.2-0.2-0.4-0.2-0.6
			l0.6-4.3c0.1-0.5,0.5-0.8,0.9-0.7c0.8,0.1,2.3,0.3,4.1,0.3c1.9,0,3.3-0.2,4.1-0.3c0.4-0.1,0.9,0.2,0.9,0.7L17.7,25.4z"/>
		<path class="st7" d="M16.4,17.2c0,0.9-0.6,1.8-1.4,2.1c-0.6,0.2-1.6,0.4-2.9,0.4c-1.4,0-2.4-0.1-3.1-0.3c-0.9-0.3-1.5-1.1-1.5-2.1
			V9.6c0-0.9,0.5-1.7,1.4-2c0.7-0.3,1.7-0.5,3.1-0.5c1.5,0,2.5,0.3,3.2,0.6c0.8,0.3,1.3,1.1,1.3,2V17.2z"/>
		<path class="st8" d="M6.1,14.4h-1c-0.3,0-0.6-0.2-0.6-0.5c0,0,0-4.9,0-5.2C4.5,7.9,5,8.1,5,8.1l1.5,1.4c0.1,0.1,0.1,0.2,0.1,0.3
			V14C6.6,14.2,6.4,14.4,6.1,14.4z"/>
		<path class="st8" d="M6.1,15.4h-1c-0.3,0-0.6,0.2-0.6,0.5c0,0,0,5.9,0,6.2c0,1,0.7,0.3,0.7,0.3l1.4-2.9c0.1-0.2,0.2-0.5,0.2-0.7
			v-2.9C6.6,15.6,6.4,15.4,6.1,15.4z"/>
		<path class="st8" d="M17.8,14.5h1c0.3,0,0.6-0.2,0.6-0.5c0,0,0-4.9,0-5.2c0-0.8-0.5-0.6-0.5-0.6l-1.5,1.4
			c-0.1,0.1-0.1,0.2-0.1,0.3V14C17.2,14.3,17.5,14.5,17.8,14.5z"/>
		<path class="st8" d="M17.8,15.4h1c0.3,0,0.6,0.2,0.6,0.5c0,0,0,5.9,0,6.2c0,1-0.7,0.3-0.7,0.3l-1.3-2.9c-0.1-0.2-0.2-0.5-0.2-0.7
			v-2.9C17.2,15.6,17.5,15.4,17.8,15.4z"/>
		<linearGradient id="SVGID_2_" gradientUnits="userSpaceOnUse" x1="5.8361" y1="4.8859" x2="18.1638" y2="4.8859">
			<stop  offset="0.5" style="stop-color:#6D6D68"/>
			<stop  offset="0.5" style="stop-color:#919190"/>
		</linearGradient>
		<path class="st9" d="M18.1,5.3c0.1-0.2,0-0.5-0.2-0.7c-0.8-0.6-2.8-1.8-5.9-1.8c-3.1,0-5.2,1.2-6,1.8C5.8,4.8,5.8,5.1,5.9,5.4
			l0.6,1.2C6.6,6.9,6.9,7,7.2,6.9C8,6.5,9.9,5.8,12,5.8c2.1,0,4,0.7,4.8,1.1c0.3,0.1,0.6,0,0.7-0.3L18.1,5.3z"/>
		<path class="st10" d="M7.8,3.1L7.6,2.2C6.1,2.9,5,3.6,4.4,4.4l0.7,0.2C5.1,4.7,6.2,3.6,7.8,3.1z"/>
		<path class="st10" d="M16,3l0.1-0.9c1.1,0.5,2.5,1.4,3.2,2.3l-0.8,0.2C18.6,4.6,17.3,3.6,16,3z"/>
		<path class="st7" d="M8.3,33c-1.1-0.4-2.1-1.1-2.9-2.1l-0.6,1c0.7,0.9,1.8,1.7,3.1,2.1L8.3,33z"/>
		<path class="st7" d="M15.6,33.1c1.1-0.4,2.2-1,2.9-2l0.5,0.9c-0.7,0.9-1.8,1.7-3.1,2.1L15.6,33.1z"/>
		<polygon class="st11" points="13.9,34.2 10.1,34.3 9.8,33.7 14.2,33.7 		"/>
		<path class="st7" d="M19.6,28.4c0,0.1,0,0.2,0,0.2c-0.2,0.7-1.3,4.5-7.7,4.5c-4.9,0-6.9-3.4-7.3-4.3c-0.1-0.2-0.1-0.3-0.1-0.5
			l0-2.4c0-0.3,0.3-0.4,0.5-0.2c0.8,1,2.8,2.5,7.1,2.5c4.3,0,6.2-1.5,7-2.5c0.2-0.2,0.5-0.1,0.5,0.2L19.6,28.4z"/>
		<linearGradient id="SVGID_3_" gradientUnits="userSpaceOnUse" x1="8.4005" y1="15.8233" x2="15.588" y2="15.8233">
			<stop  offset="0.5" style="stop-color:#6D6D68"/>
			<stop  offset="0.5" style="stop-color:#919190"/>
		</linearGradient>
		<path class="st12" d="M14.8,17.1H9.2c-0.4,0-0.8-0.3-0.8-0.8v-1.1c0-0.4,0.3-0.8,0.8-0.8h5.7c0.4,0,0.8,0.3,0.8,0.8v1.1
			C15.6,16.8,15.2,17.1,14.8,17.1z"/>
	</g>
</g>
<g id="图层_2" class="st0">
	<g class="st1">
		<g>
			<path class="st2" d="M17,35.2c0,0-1.3,0.6-4.9,0.6c-2.9,0-4.3-0.5-4.3-0.5c-2.9-0.9-5.1-2.9-5.1-5.5V5.5c0-2,1.6-3.1,4.4-4.3
				c0,0,1.5-0.9,5-0.9s5,0.9,5,0.9c1.4,0.7,4.5,2.4,4.4,4.3v24.2C21.6,32.3,19.8,33.9,17,35.2z"/>
			<path class="st3" d="M16.9,34.9c0,0-1.3,0.6-4.8,0.6c-2.8,0-4.2-0.5-4.2-0.5c-2.8-0.9-5-2.9-5-5.4V5.7c0-1.9,1.6-3.1,4.3-4.2
				c0,0,1.5-0.9,4.9-0.9S17,1.5,17,1.5c1.4,0.7,4.4,2.3,4.3,4.2v23.8C21.3,32.1,19.6,33.7,16.9,34.9z"/>
			<path class="st2" d="M16.7,34.7c0,0-1.2,0.6-4.6,0.6c-2.7,0-4.1-0.5-4.1-0.5c-2.7-0.8-4.8-2.8-4.8-5.4V5.9c0-1.9,1.5-3,4.1-4.2
				c0,0,1.4-0.8,4.7-0.8s4.7,0.8,4.7,0.8C18.2,2.4,21,4,21,5.9v23.5C21,31.9,19.3,33.5,16.7,34.7z"/>
			<path class="st2" d="M16.6,34.4c0,0-1.2,0.6-4.4,0.6c-2.6,0-3.9-0.5-3.9-0.5c-2.6-0.8-4.6-2.8-4.6-5.3V6.1c0-1.9,1.4-3,4-4.1
				c0,0,1.4-0.8,4.5-0.8S16.7,2,16.7,2c1.3,0.7,4.1,2.3,4,4.1v23.1C20.7,31.7,19.1,33.2,16.6,34.4z"/>
		</g>
		<g>
			<path class="st13" d="M16.5,34.1c0,0-1.1,0.5-4.2,0.5c-2.5,0-3.8-0.5-3.8-0.5c-2.5-0.8-4.4-2.7-4.4-5v-23c0-1.8,1.4-2.8,3.8-3.9
				c0,0,1.3-0.8,4.3-0.8s4.3,0.8,4.3,0.8c1.2,0.6,3.9,2.2,3.8,3.9v23C20.4,31.5,18.9,32.9,16.5,34.1z"/>
			<path class="st14" d="M16.5,32.9c0,0-1.3,0.4-4.2,0.5C9.8,33.5,8.5,33,8.5,33c-2.5-0.8-4.4-3.7-4.4-6l0-19.9
				c0-1.8,1.4-2.8,3.8-3.9c0,0,1.3-0.8,4.3-0.8s4.3,0.8,4.3,0.8c1.2,0.6,3.9,2.2,3.8,3.9l0,19.9C20.4,29.3,18.9,31.8,16.5,32.9z"/>
			<linearGradient id="SVGID_4_" gradientUnits="userSpaceOnUse" x1="6.4294" y1="24.2685" x2="17.923" y2="24.2685">
				<stop  offset="0.5" style="stop-color:#3A5C5A"/>
				<stop  offset="0.5" style="stop-color:#4A6665"/>
			</linearGradient>
			<path class="st15" d="M17.9,25.4c0.1,0.3,0,0.6-0.3,0.8c-0.6,0.6-2.2,1.6-5.5,1.6c-3.8,0-5.1-0.9-5.6-1.4
				c-0.1-0.2-0.2-0.4-0.2-0.6l0.6-4.3C7.1,21,7.6,20.7,8,20.8c0.8,0.1,2.3,0.3,4.1,0.3c1.9,0,3.3-0.2,4.1-0.3
				c0.4-0.1,0.9,0.2,0.9,0.7L17.9,25.4z"/>
			<linearGradient id="SVGID_5_" gradientUnits="userSpaceOnUse" x1="7.6713" y1="13.365" x2="16.6713" y2="13.365">
				<stop  offset="3.950948e-02" style="stop-color:#59D4CF"/>
				<stop  offset="1" style="stop-color:#5DDADA"/>
			</linearGradient>
			<path class="st16" d="M16.7,17.2c0,0.9-0.6,1.8-1.4,2.1c-0.6,0.2-1.6,0.4-2.9,0.4c-1.4,0-2.4-0.1-3.1-0.3
				c-0.9-0.3-1.5-1.1-1.5-2.1V9.6c0-0.9,0.5-1.7,1.4-2c0.7-0.3,1.7-0.5,3.1-0.5c1.5,0,2.5,0.3,3.2,0.6c0.8,0.3,1.3,1.1,1.3,2V17.2z"
				/>
			<linearGradient id="SVGID_6_" gradientUnits="userSpaceOnUse" x1="4.7093" y1="11.2524" x2="6.897" y2="11.2524">
				<stop  offset="0" style="stop-color:#3A5C5A"/>
				<stop  offset="1" style="stop-color:#4A6665"/>
			</linearGradient>
			<path class="st17" d="M6.3,14.4h-1c-0.3,0-0.6-0.2-0.6-0.5c0,0,0-4.9,0-5.2c0-0.8,0.5-0.6,0.5-0.6l1.5,1.4
				c0.1,0.1,0.1,0.2,0.1,0.3V14C6.9,14.2,6.6,14.4,6.3,14.4z"/>
			<linearGradient id="SVGID_7_" gradientUnits="userSpaceOnUse" x1="4.7084" y1="19.0056" x2="6.898" y2="19.0056">
				<stop  offset="0" style="stop-color:#3A5C5A"/>
				<stop  offset="1" style="stop-color:#4A6665"/>
			</linearGradient>
			<path class="st18" d="M6.3,15.4h-1c-0.3,0-0.6,0.2-0.6,0.5c0,0,0,5.9,0,6.2c0,1,0.7,0.3,0.7,0.3l1.4-2.9c0.1-0.2,0.2-0.5,0.2-0.7
				v-2.9C6.9,15.6,6.6,15.4,6.3,15.4z"/>
			<linearGradient id="SVGID_8_" gradientUnits="userSpaceOnUse" x1="17.4723" y1="11.2864" x2="19.6511" y2="11.2864">
				<stop  offset="0" style="stop-color:#3A5C5A"/>
				<stop  offset="1" style="stop-color:#4A6665"/>
			</linearGradient>
			<path class="st19" d="M18.1,14.5h1c0.3,0,0.6-0.2,0.6-0.5c0,0,0-4.9,0-5.2c0-0.8-0.5-0.6-0.5-0.6l-1.5,1.4
				c-0.1,0.1-0.1,0.2-0.1,0.3V14C17.5,14.3,17.7,14.5,18.1,14.5z"/>
			<linearGradient id="SVGID_9_" gradientUnits="userSpaceOnUse" x1="17.4714" y1="19.0396" x2="19.6521" y2="19.0396">
				<stop  offset="0" style="stop-color:#3A5C5A"/>
				<stop  offset="1" style="stop-color:#4A6665"/>
			</linearGradient>
			<path class="st20" d="M18.1,15.4h1c0.3,0,0.6,0.2,0.6,0.5c0,0,0,5.9,0,6.2c0,1-0.7,0.3-0.7,0.3l-1.3-2.9
				c-0.1-0.2-0.2-0.5-0.2-0.7v-2.9C17.5,15.6,17.7,15.4,18.1,15.4z"/>
			<linearGradient id="SVGID_10_" gradientUnits="userSpaceOnUse" x1="6.0861" y1="4.8859" x2="18.4138" y2="4.8859">
				<stop  offset="0.5" style="stop-color:#3A5C5A"/>
				<stop  offset="0.5" style="stop-color:#4A6665"/>
			</linearGradient>
			<path class="st21" d="M18.4,5.3c0.1-0.2,0-0.5-0.2-0.7c-0.8-0.6-2.8-1.8-5.9-1.8c-3.1,0-5.2,1.2-6,1.8C6.1,4.8,6,5.1,6.1,5.4
				l0.6,1.2C6.8,6.9,7.2,7,7.4,6.9c0.9-0.4,2.7-1.1,4.8-1.1c2.1,0,4,0.7,4.8,1.1c0.3,0.1,0.6,0,0.7-0.3L18.4,5.3z"/>
			<path class="st14" d="M1.6,22.3c0,0,0.4-0.1,0.5,0C2.4,22.5,2.7,22.8,3,23c0.8,0.4,1.3,0.5,1.3,0.5l0.1,1.1H2.9
				c0,0-1.2-0.2-1.5-0.9C0.9,22.5,1.6,22.3,1.6,22.3z"/>
			<path class="st14" d="M22.8,22.3c0,0-0.4-0.1-0.5,0c-0.2,0.2-0.6,0.5-0.9,0.7c-0.8,0.4-1.3,0.5-1.3,0.5L20,24.6h1.6
				c0,0,1.2-0.2,1.5-0.9C23.5,22.5,22.8,22.3,22.8,22.3z"/>
			<path class="st22" d="M8,3.1L7.9,2.2C6.4,2.9,5.3,3.6,4.6,4.4l0.8,0.2C5.4,4.7,6.9,3.6,8,3.1z"/>
			<path class="st22" d="M16.2,3.1l0.1-0.9c1.5,0.7,2.6,1.4,3.3,2.2l-0.8,0.2C18.8,4.6,17.3,3.6,16.2,3.1z"/>
			<path class="st23" d="M8.6,33c-1.1-0.4-2.1-1.1-2.9-2.1l-0.6,1c0.7,0.9,1.8,1.7,3.1,2.1L8.6,33z"/>
			<path class="st23" d="M15.9,33.1c1.1-0.4,2.2-1,2.9-2l0.5,0.9c-0.7,0.9-1.8,1.7-3.1,2.1L15.9,33.1z"/>
			<polygon class="st24" points="14.1,34.2 10.3,34.3 10.1,33.7 14.5,33.7 			"/>
			<linearGradient id="SVGID_11_" gradientUnits="userSpaceOnUse" x1="4.6728" y1="29.3136" x2="19.8428" y2="29.3136">
				<stop  offset="3.950948e-02" style="stop-color:#59D4CF"/>
				<stop  offset="1" style="stop-color:#5DDADA"/>
			</linearGradient>
			<path class="st25" d="M19.8,28.4c0,0.1,0,0.2,0,0.2c-0.2,0.7-1.3,4.5-7.7,4.5c-4.9,0-6.9-3.4-7.3-4.3c-0.1-0.2-0.1-0.3-0.1-0.5
				l0-2.4c0-0.3,0.3-0.4,0.5-0.2c0.8,1,2.8,2.5,7.1,2.5c4.3,0,6.2-1.5,7-2.5c0.2-0.2,0.5-0.1,0.5,0.2L19.8,28.4z"/>
			<linearGradient id="SVGID_12_" gradientUnits="userSpaceOnUse" x1="8.6505" y1="15.8233" x2="15.838" y2="15.8233">
				<stop  offset="0.5" style="stop-color:#3A5C5A"/>
				<stop  offset="0.5" style="stop-color:#4A6665"/>
			</linearGradient>
			<path class="st26" d="M15.1,17.1H9.4c-0.4,0-0.8-0.3-0.8-0.8v-1.1c0-0.4,0.3-0.8,0.8-0.8h5.7c0.4,0,0.8,0.3,0.8,0.8v1.1
				C15.8,16.8,15.5,17.1,15.1,17.1z"/>
		</g>
	</g>
</g>
<g id="图层_3" class="st0">
	<g class="st1">
		<g>
			<path class="st2" d="M19.4,35.4H5c-0.7,0-1.2-0.5-1.2-1.2V1.9c0-0.7,0.5-1.2,1.2-1.2h14.5c0.7,0,1.2,0.5,1.2,1.2v32.3
				C20.6,34.8,20.1,35.4,19.4,35.4z"/>
			<path class="st3" d="M19.6,35.5H4.8c-0.7,0-1.2-0.5-1.2-1.2V1.7c0-0.7,0.5-1.2,1.2-1.2h14.7c0.7,0,1.2,0.5,1.2,1.2v32.6
				C20.7,35,20.2,35.5,19.6,35.5z"/>
			<path class="st2" d="M19.2,35.2H5.2C4.5,35.2,4,34.6,4,34V2c0-0.7,0.5-1.2,1.2-1.2h14.1c0.7,0,1.2,0.5,1.2,1.2v32
				C20.4,34.6,19.9,35.2,19.2,35.2z"/>
			<path class="st2" d="M19,35H5.4c-0.7,0-1.2-0.5-1.2-1.2V2.2C4.2,1.6,4.7,1,5.4,1H19c0.7,0,1.2,0.5,1.2,1.2v31.6
				C20.2,34.5,19.7,35,19,35z"/>
		</g>
		<path class="st8" d="M20.2,28.3h-0.3V2.7c0-0.8-0.6-1.4-1.4-1.4H5.7C5,1.3,4.4,1.9,4.4,2.7v25.6H4.2c-0.2,0-0.4,0.2-0.4,0.4
			S4,29,4.2,29h0.2v3.4C4.4,33.3,5,34,5.9,34h12.6c0.8,0,1.5-0.7,1.5-1.5V29h0.3c0.2,0,0.4-0.2,0.4-0.4S20.4,28.3,20.2,28.3z"/>
		<path class="st11" d="M18.3,29.6c0,0-2.7,0.6-6.2,0.6c-3.9,0-6.4-0.6-6.4-0.6c-0.9-0.3-1.2-1.3-1.2-1.7V3.1c0-0.8,0.6-1.4,1.4-1.4
			h12.6c0.8,0,1.4,0.6,1.4,1.4v24.8C19.9,28.2,19.5,29.2,18.3,29.6z"/>
		<path class="st5" d="M17.6,27.2H6.7c-0.5,0-0.8-0.4-0.8-0.8V4.9c0-0.5,0.4-0.8,0.8-0.8h10.9c0.5,0,0.8,0.4,0.8,0.8v21.5
			C18.5,26.8,18.1,27.2,17.6,27.2z"/>
		<path class="st27" d="M17.2,11.8H7.4c-0.1,0-0.2-0.1-0.2-0.2V7.3c0-0.1,0.1-0.2,0.2-0.2h9.8c0.1,0,0.2,0.1,0.2,0.2v4.3
			C17.4,11.7,17.3,11.8,17.2,11.8z"/>
		<path class="st5" d="M17,11.6H7.7c-0.1,0-0.2-0.1-0.2-0.2V7.5c0-0.1,0.1-0.2,0.2-0.2H17c0.1,0,0.2,0.1,0.2,0.2v3.8
			C17.2,11.5,17.1,11.6,17,11.6z"/>
		<linearGradient id="SVGID_13_" gradientUnits="userSpaceOnUse" x1="5.236" y1="2.9524" x2="19.1526" y2="2.9524">
			<stop  offset="0.5" style="stop-color:#6D6D68"/>
			<stop  offset="0.5" style="stop-color:#919190"/>
		</linearGradient>
		<path class="st28" d="M18.5,3.6c-0.2,0.2-0.4,0.3-0.7,0.2c-0.7-0.1-3.3-0.4-5.6-0.4c-2.1,0-4.8,0.3-5.6,0.4c-0.2,0-0.5,0-0.6-0.2
			L5.2,2.9c0,0,3.1-0.7,6.9-0.7c4,0,7,0.7,7,0.7L18.5,3.6z"/>
		<linearGradient id="SVGID_14_" gradientUnits="userSpaceOnUse" x1="5.4492" y1="28.6723" x2="19.0241" y2="28.6723">
			<stop  offset="0.5" style="stop-color:#6D6D68"/>
			<stop  offset="0.5" style="stop-color:#919190"/>
		</linearGradient>
		<path class="st29" d="M19,28.7c0.1,0.3-0.1,0.5-0.3,0.6C17.9,29.5,15,30,12.2,30c-3.3,0-5.9-0.4-6.5-0.6c-0.2-0.1-0.3-0.3-0.3-0.5
			l0.3-1.2c0.1-0.2,0.3-0.4,0.5-0.3c0.7,0.2,3.2,0.3,5.9,0.3c2.3,0,5.1-0.2,5.9-0.4c0.2-0.1,0.5,0.1,0.5,0.3L19,28.7z"/>
		<path class="st8" d="M5.7,26.6c0,0.1,0,0.2-0.1,0.3L5,28.1c0,0-0.2,0.4-0.2-0.4c0-0.3,0-3.9,0-3.9h0.9V26.6z"/>
		<path class="st8" d="M5.7,10H4.8V4.2l0.8,0.5C5.7,4.9,5.8,5,5.8,5.2L5.7,10z"/>
		<path class="st30" d="M18.5,34.8H6c-0.9,0-1.6-0.7-1.6-1.5l0-4.2c0,0,0.3,1.2,1.2,1.6c0.9,0.3,4.4,0.6,7.6,0.6
			c3.2,0,5.2-0.4,5.8-1c0.7-0.7,1-1.4,1-1.4l0,4.3C20,34.1,19.3,34.8,18.5,34.8z"/>
		<rect x="4.8" y="10.5" class="st8" width="1" height="5.1"/>
		<rect x="4.8" y="16.5" class="st8" width="1" height="6.1"/>
		<g>
			<path class="st8" d="M18.8,23.8v2.8c0,0.1,0,0.2,0.1,0.3l0.6,1.3c0,0,0.2,0.4,0.2-0.4c0-0.3,0-3.9,0-3.9H18.8z"/>
			<path class="st8" d="M19,4.8c-0.2,0.1-0.3,0.3-0.2,0.5l0.1,4.7h0.9V4.2L19,4.8z"/>
			<rect x="18.8" y="10.5" class="st8" width="1" height="5.1"/>
			<rect x="18.8" y="16.5" class="st8" width="1" height="6.1"/>
		</g>
		<path class="st11" d="M18.5,34H6c-0.9,0-1.6-0.7-1.6-1.5l0-4.2c0,0,0.3,1.1,1.2,1.5c0.9,0.3,3.4,0.6,6.6,0.6
			c3.4,0,6.2-0.4,6.8-0.9c0.8-0.6,1-1.4,1-1.4l0,4.3C20,33.3,19.3,34,18.5,34z"/>
		<g>
			<path class="st31" d="M7.6,34c0,0-1.6,0-2.2,0c-0.2,0-0.6-0.9-0.6-0.9s0-0.2,1.1-0.2C7.4,32.9,7.6,34,7.6,34z"/>
			<path class="st32" d="M5.3,33.9c-0.2,0-0.6-0.9-0.6-0.9s0-0.2,1.1-0.2C5.9,32.9,5.3,33.9,5.3,33.9z"/>
			<path class="st31" d="M17,34c0,0,1.6,0,2.2,0c0.2,0,0.6-0.9,0.6-0.9s0-0.2-1.1-0.2C17.2,32.9,17,34,17,34z"/>
			<path class="st32" d="M19.2,33.9c0.2,0,0.6-0.9,0.6-0.9s0-0.2-1.1-0.2C18.7,32.9,19.2,33.9,19.2,33.9z"/>
		</g>
		<rect x="8.6" y="34.1" class="st11" width="6.6" height="0.6"/>
		<path class="st27" d="M17.2,23.4H7.4c-0.1,0-0.2-0.1-0.2-0.2v-4.3c0-0.1,0.1-0.2,0.2-0.2h9.8c0.1,0,0.2,0.1,0.2,0.2v4.3
			C17.4,23.4,17.3,23.4,17.2,23.4z"/>
		<path class="st5" d="M17,23.2H7.7c-0.1,0-0.2-0.1-0.2-0.2v-3.8c0-0.1,0.1-0.2,0.2-0.2H17c0.1,0,0.2,0.1,0.2,0.2V23
			C17.2,23.1,17.1,23.2,17,23.2z"/>
	</g>
</g>
<g id="图层_4" class="st0">
	<g class="st1">
		<g>
			<path class="st3" d="M19.6,0.5H4.8c-0.7,0-1.2,0.5-1.2,1.2v32.6c0,0.7,0.5,1.2,1.2,1.2h14.7c0.7,0,1.2-0.5,1.2-1.2V1.7
				C20.7,1.1,20.2,0.5,19.6,0.5z M20.6,34.2c0,0.7-0.5,1.2-1.2,1.2H5c-0.7,0-1.2-0.5-1.2-1.2V1.9c0-0.7,0.5-1.2,1.2-1.2h14.5
				c0.7,0,1.2,0.5,1.2,1.2V34.2z"/>
			<path class="st2" d="M19.4,35.4H5c-0.7,0-1.2-0.5-1.2-1.2V1.9c0-0.7,0.5-1.2,1.2-1.2h14.5c0.7,0,1.2,0.5,1.2,1.2v32.3
				C20.6,34.8,20.1,35.4,19.4,35.4z"/>
			<path class="st2" d="M19.2,0.9H5.2C4.5,0.9,4,1.4,4,2v32c0,0.7,0.5,1.2,1.2,1.2h14.1c0.7,0,1.2-0.5,1.2-1.2V2
				C20.4,1.4,19.9,0.9,19.2,0.9z M20.2,33.8c0,0.7-0.5,1.2-1.2,1.2H5.4c-0.7,0-1.2-0.5-1.2-1.2V2.2C4.2,1.6,4.7,1,5.4,1H19
				c0.7,0,1.2,0.5,1.2,1.2V33.8z"/>
			<path class="st33" d="M19,35H5.4c-0.7,0-1.2-0.5-1.2-1.2V2.2C4.2,1.6,4.7,1,5.4,1H19c0.7,0,1.2,0.5,1.2,1.2v31.6
				C20.2,34.5,19.7,35,19,35z"/>
		</g>
		<g>
			<path class="st34" d="M20.2,28.3h-0.3V2.7c0-0.8-0.6-1.4-1.4-1.4H5.7C5,1.3,4.4,1.9,4.4,2.7v25.6H4.2c-0.2,0-0.4,0.2-0.4,0.4
				S4,29,4.2,29h0.2v3.4C4.4,33.3,5,34,5.9,34h12.6c0.8,0,1.5-0.7,1.5-1.5V29h0.3c0.2,0,0.4-0.2,0.4-0.4S20.4,28.3,20.2,28.3z"/>
			<path class="st35" d="M18.4,29.6c0,0-2.7,0.6-6.2,0.6c-3.9,0-6.4-0.6-6.4-0.6c-0.9-0.3-1.2-1.3-1.2-1.7V3.1
				c0-0.8,0.6-1.4,1.4-1.4h12.6c0.8,0,1.4,0.6,1.4,1.4v24.8C19.9,28.2,19.5,29.2,18.4,29.6z"/>
			<path class="st36" d="M17.6,27.2H6.7c-0.5,0-0.8-0.4-0.8-0.8V4.9c0-0.5,0.4-0.8,0.8-0.8h10.9c0.5,0,0.8,0.4,0.8,0.8v21.5
				C18.4,26.8,18.1,27.2,17.6,27.2z"/>
			<path class="st34" d="M17.1,11.8H7.4c-0.1,0-0.2-0.1-0.2-0.2V7.3c0-0.1,0.1-0.2,0.2-0.2h9.8c0.1,0,0.2,0.1,0.2,0.2v4.3
				C17.3,11.7,17.2,11.8,17.1,11.8z"/>
			<path class="st36" d="M16.9,11.6H7.6c-0.1,0-0.2-0.1-0.2-0.2V7.5c0-0.1,0.1-0.2,0.2-0.2h9.3c0.1,0,0.2,0.1,0.2,0.2v3.8
				C17.1,11.5,17,11.6,16.9,11.6z"/>
			<linearGradient id="SVGID_15_" gradientUnits="userSpaceOnUse" x1="5.2691" y1="2.9525" x2="18.7851" y2="2.9525">
				<stop  offset="0.5" style="stop-color:#35A2FD"/>
				<stop  offset="0.5" style="stop-color:#78BEF3"/>
			</linearGradient>
			<path class="st37" d="M18.4,3.6c-0.2,0.2-0.4,0.3-0.7,0.2c-0.7-0.1-3.3-0.1-5.6-0.1c-2.1,0-4.9,0-5.6,0.1c-0.2,0-0.5,0-0.6-0.2
				L5.3,2.9c0,0-0.1-0.3,0.5-0.4c1.1-0.2,3.6-0.4,6.3-0.4c2.7,0,5,0.2,6.2,0.4c0.6,0.1,0.5,0.4,0.5,0.4L18.4,3.6z"/>
			<linearGradient id="SVGID_16_" gradientUnits="userSpaceOnUse" x1="5.365" y1="28.6723" x2="18.94" y2="28.6723">
				<stop  offset="0.5" style="stop-color:#35A2FD"/>
				<stop  offset="0.5" style="stop-color:#78BEF3"/>
			</linearGradient>
			<path class="st38" d="M18.9,28.7c0.1,0.3-0.1,0.5-0.3,0.6C17.8,29.5,15,30,12.1,30c-3.3,0-5.9-0.4-6.5-0.6
				c-0.2-0.1-0.3-0.3-0.3-0.5l0.3-1.2c0.1-0.2,0.3-0.4,0.5-0.3c0.7,0.2,3.2,0.3,5.9,0.3c2.3,0,5.1-0.2,5.9-0.4
				c0.2-0.1,0.5,0.1,0.5,0.3L18.9,28.7z"/>
			<path class="st39" d="M5.7,26.6c0,0.1,0,0.2-0.1,0.3L5,28.1c0,0-0.2,0.4-0.2-0.4c0-0.3,0-3.9,0-3.9h0.9V26.6z"/>
			<path class="st40" d="M5.6,10H4.7V4.2l0.8,0.5C5.6,4.9,5.7,5,5.7,5.2L5.6,10z"/>
			<path class="st30" d="M18.4,34.8H6c-0.9,0-1.6-0.7-1.6-1.5l0-4.2c0,0,0.3,1.2,1.2,1.6c0.9,0.3,4.4,0.6,7.6,0.6
				c3.2,0,5.2-0.4,5.8-1c0.7-0.7,1-1.4,1-1.4l0,4.3C20,34.1,19.3,34.8,18.4,34.8z"/>
			<rect x="4.7" y="10.5" class="st40" width="1" height="5.1"/>
			<rect x="4.7" y="16.5" class="st40" width="1" height="6.1"/>
			<g>
				<path class="st40" d="M18.8,23.8v2.8c0,0.1,0,0.2,0.1,0.3l0.6,1.3c0,0,0.2,0.4,0.2-0.4c0-0.3,0-3.9,0-3.9H18.8z"/>
				<path class="st40" d="M19,4.8c-0.2,0.1-0.3,0.3-0.2,0.5l0.1,4.7h0.9V4.2L19,4.8z"/>
				<rect x="18.7" y="10.5" class="st40" width="1" height="5.1"/>
				<rect x="18.7" y="16.5" class="st40" width="1" height="6.1"/>
			</g>
			<path class="st36" d="M18.4,34H6c-0.9,0-1.6-0.7-1.6-1.5l0-4.2c0,0,0.3,1.1,1.2,1.5c0.9,0.3,3.4,0.6,6.6,0.6
				c3.4,0,6.2-0.4,6.8-0.9c0.8-0.6,1-1.4,1-1.4l0,4.3C20,33.3,19.3,34,18.4,34z"/>
			<g>
				<path class="st41" d="M7.5,34c0,0-1.6,0-2.2,0C5,33.9,4.7,33,4.7,33s0-0.2,1.1-0.2C7.3,32.9,7.5,34,7.5,34z"/>
				<path class="st42" d="M5.3,33.9C5,33.9,4.7,33,4.7,33s0-0.2,1.1-0.2C5.8,32.9,5.3,33.9,5.3,33.9z"/>
				<path class="st41" d="M16.9,34c0,0,1.6,0,2.2,0c0.2,0,0.6-0.9,0.6-0.9s0-0.2-1.1-0.2C17.1,32.9,16.9,34,16.9,34z"/>
				<path class="st42" d="M19.2,33.9c0.2,0,0.6-0.9,0.6-0.9s0-0.2-1.1-0.2C18.6,32.9,19.2,33.9,19.2,33.9z"/>
			</g>
			<rect x="8.5" y="34.1" class="st43" width="6.6" height="0.6"/>
			<path class="st34" d="M17.1,23.4H7.4c-0.1,0-0.2-0.1-0.2-0.2v-4.3c0-0.1,0.1-0.2,0.2-0.2h9.8c0.1,0,0.2,0.1,0.2,0.2v4.3
				C17.3,23.4,17.2,23.4,17.1,23.4z"/>
			<path class="st36" d="M16.9,23.2H7.6c-0.1,0-0.2-0.1-0.2-0.2v-3.8c0-0.1,0.1-0.2,0.2-0.2h9.3c0.1,0,0.2,0.1,0.2,0.2V23
				C17.1,23.1,17,23.2,16.9,23.2z"/>
		</g>
	</g>
</g>
<g id="图层_5" class="st0">
	<g class="st1">
		<g>
			<path class="st3" d="M15.9,35.6H8.4c-3.2,0-5.2-2.3-5.2-5.2V5.7c0-2.8,1.8-5.1,5.1-5.1H16c3.5,0,5.1,2.3,5.1,5.1v24.7
				C21.1,33.6,19,35.6,15.9,35.6z"/>
			<path class="st44" d="M15.8,35.3H8.6c-3.4,0-5.2-2.3-5.2-5.2V5.9c0-2.8,1.7-5.1,5.1-5.1h7.3c3.8,0,5.1,2.3,5.1,5.1v24.3
				C21,33,19.5,35.3,15.8,35.3z"/>
			<path class="st2" d="M15.6,35.1H8.8c-3.7,0-5.1-2.3-5.1-5.1V6.1C3.6,3.3,5,1,8.7,1h6.9c4,0,5.1,2.3,5.1,5.1v23.8
				C20.8,32.8,19.5,35.1,15.6,35.1z"/>
			<path class="st33" d="M15.8,34.8H8.6c-3.3,0-4.8-2.1-4.8-4.8V6c0-2.6,1.3-4.7,4.7-4.7h7.3c3.8,0,4.7,2.1,4.7,4.7v24
				C20.6,32.7,19.3,34.8,15.8,34.8z"/>
		</g>
		<g>
			<path class="st27" d="M16.2,34.7H8.3c-2.3,0-4.1-1.9-4.1-4.2V7.1c0-2.3,0.3-5.7,3.1-5.7l9.6,0.1c3.2,0,3.4,3.4,3.4,5.7v23.4
				C20.3,32.8,18.5,34.7,16.2,34.7z"/>
			<path class="st11" d="M20,23.3l-0.4,0.1V4.6c0-1.2-1-2.2-2.2-2.2H7.1c-1.2,0-2.2,1-2.2,2.2v18.8l-0.6-0.1c-0.3,0-0.5,0.1-0.6,0.4
				c0,0.3,0.1,0.5,0.4,0.6l0.7,0.1v5.4C4.9,31,7,33,9.1,33h6.3c2,0,4.2-2,4.2-3.2v-5.4l0.6-0.1c0.3,0,0.4-0.3,0.4-0.6
				C20.6,23.4,20.3,23.3,20,23.3z"/>
			<rect x="9" y="33.3" class="st45" width="6.5" height="0.5"/>
			<g>
				<linearGradient id="SVGID_17_" gradientUnits="userSpaceOnUse" x1="5.6857" y1="22.8345" x2="18.8564" y2="22.8345">
					<stop  offset="0.5" style="stop-color:#6D6D68"/>
					<stop  offset="0.5" style="stop-color:#919190"/>
				</linearGradient>
				<path class="st46" d="M18.8,23.6c0.1,0.3,0,0.6-0.3,0.7c-0.7,0.3-2.7,0.9-6.3,0.9c-3.5,0-5.6-0.5-6.3-0.8
					c-0.3-0.1-0.4-0.4-0.3-0.7l1-2.7c0.1-0.3,0.4-0.4,0.7-0.4c0.6,0.2,2.3,0.4,4.9,0.4c2.6,0,4.3-0.2,4.9-0.4
					c0.3-0.1,0.6,0.1,0.7,0.4L18.8,23.6z"/>
				<linearGradient id="SVGID_18_" gradientUnits="userSpaceOnUse" x1="5.717" y1="7.9856" x2="18.8876" y2="7.9856">
					<stop  offset="0.5" style="stop-color:#6D6D68"/>
					<stop  offset="0.5" style="stop-color:#919190"/>
				</linearGradient>
				<path class="st47" d="M18.9,7.7c0.1-0.3,0-0.6-0.3-0.7c-0.7-0.3-2.7-0.8-6.2-0.8C8.8,6.2,6.7,6.6,6,7C5.8,7.1,5.7,7.4,5.8,7.7
					l1,1.7c0.1,0.3,0.4,0.4,0.7,0.4C8,9.6,9.7,9.3,12.3,9.3c2.6,0,4.3,0.2,4.9,0.4c0.3,0.1,0.6-0.1,0.7-0.4L18.9,7.7z"/>
				<path class="st8" d="M6.4,15.9H5.3C5.1,15.9,5,16,5,16.2l0,6.2c0,0,0,0.4,0.2,0.4c0.2,0,1.4-2.9,1.4-2.9
					c0.1-0.2,0.1-0.4,0.1-0.6l0-3C6.7,16,6.5,15.9,6.4,15.9z"/>
				<path class="st8" d="M6.4,14.8H5.3c-0.2,0-0.3-0.1-0.3-0.3l0-6.2C5,8.4,5,8,5.2,8c0.2,0,1.4,2.2,1.4,2.2
					c0.1,0.2,0.1,0.4,0.1,0.6l0,3.8C6.7,14.7,6.5,14.8,6.4,14.8z"/>
				<path class="st8" d="M18.3,15.8h1.1c0.2,0,0.3,0.1,0.3,0.3l0,6.2c0,0,0,0.4-0.2,0.4c-0.2,0-1.4-2.9-1.4-2.9
					C18,19.5,18,19.3,18,19.1l0-3C18,16,18.1,15.8,18.3,15.8z"/>
				<path class="st8" d="M18.3,14.8h1.1c0.2,0,0.3-0.1,0.3-0.3l0-6.2c0,0,0-0.4-0.2-0.4c-0.2,0-1.4,2.2-1.4,2.2
					C18,10.3,18,10.5,18,10.8l0,3.8C18,14.7,18.1,14.8,18.3,14.8z"/>
			</g>
			<g>
				<path class="st48" d="M8.6,33.8c0,0-1.2,0.5-2.2-0.1c-1.1-0.7-1-1.8-1-1.8s0.3-0.3,0.7,0c0.3,0.2,0.5,0.4,1,0.6
					c0.4,0.2,0.9,0.3,1.1,0.4C8.7,33.2,8.6,33.8,8.6,33.8z"/>
				<ellipse transform="matrix(0.3154 -0.949 0.949 0.3154 -26.6502 29.3276)" class="st49" cx="7" cy="33.1" rx="0.3" ry="0.4"/>
			</g>
			<g>
				<path class="st48" d="M15.8,33.8c0,0,1.2,0.5,2.2-0.1c1.1-0.7,1-1.8,1-1.8s-0.3-0.3-0.7,0c-0.3,0.2-0.5,0.4-1,0.6
					c-0.4,0.2-0.9,0.3-1.1,0.4C15.8,33.2,15.8,33.8,15.8,33.8z"/>
				<ellipse transform="matrix(0.949 -0.3154 0.3154 0.949 -9.5585 7.205)" class="st49" cx="17.5" cy="33.1" rx="0.4" ry="0.3"/>
			</g>
			<g>
				<path class="st48" d="M7.8,1.4c-0.7,0-1.3,0.2-1.3,0.7c0,0.3,0.8,0.4,1.5,0.2c0.7-0.1,1.1-0.4,1.1-0.5C9.2,1.5,8.5,1.4,7.8,1.4z
					"/>
				<path class="st48" d="M16.7,1.5c-0.6,0-1.2,0.1-1.2,0.4c0,0.1,0.4,0.3,1,0.4c0.6,0.1,1.4,0.1,1.4-0.2
					C17.9,1.7,17.3,1.5,16.7,1.5z"/>
			</g>
			<polygon class="st2" points="9.6,17.3 10.3,16 15.8,16 15.9,17.4 			"/>
			<path class="st50" d="M9.6,17l-0.7,0.7c-0.1,0.1-0.1,0.2-0.1,0.3L9.2,19c0,0.1,0.2,0.2,0.3,0.2l5.8,0l0.5-1.8L15.1,17L9.6,17z"/>
			<path class="st51" d="M14.8,18h-5c-0.2,0-0.3-0.1-0.3-0.3v-0.6c0-0.2,0.1-0.3,0.3-0.3h5c0.2,0,0.3,0.1,0.3,0.3v0.6
				C15.1,17.9,15,18,14.8,18z"/>
			<g>
				<path class="st52" d="M9.4,30.6V28H8.6v-0.3h1.9V28H9.7v2.6H9.4z"/>
				<path class="st52" d="M10.3,30.6l0.9-2.9h0.3l1,2.9h-0.4l-0.3-0.9h-1l-0.3,0.9H10.3z M11,29.4h0.8l-0.2-0.8
					c-0.1-0.2-0.1-0.4-0.2-0.6c0,0.2-0.1,0.4-0.1,0.6L11,29.4z"/>
				<path class="st52" d="M12.6,30.6l0.9-1.5l-0.8-1.4h0.4l0.4,0.7c0.1,0.2,0.2,0.3,0.2,0.4c0.1-0.1,0.1-0.2,0.2-0.3l0.5-0.8h0.3
					L13.9,29l0.9,1.5h-0.4l-0.6-1c0-0.1-0.1-0.1-0.1-0.2c-0.1,0.1-0.1,0.2-0.1,0.2l-0.6,1H12.6z"/>
				<path class="st52" d="M15.1,30.6v-2.9h0.3v2.9H15.1z"/>
			</g>
		</g>
	</g>
</g>
<g id="图层_6" class="st0">
	<g class="st1">
		<path class="st3" d="M15.9,35.6H8.4c-3.2,0-5.2-2.3-5.2-5.2V5.7c0-2.8,1.8-5.1,5.1-5.1h7.6c3.5,0,5.1,2.3,5.1,5.1v24.7
			C21.1,33.6,19,35.6,15.9,35.6z"/>
		<path class="st44" d="M15.8,35.3H8.5c-3.4,0-5.2-2.3-5.2-5.2V5.9c0-2.8,1.7-5.1,5.1-5.1h7.3c3.8,0,5.1,2.3,5.1,5.1v24.3
			C21,33,19.4,35.3,15.8,35.3z"/>
		<path class="st2" d="M15.6,35.1H8.7c-3.7,0-5.1-2.3-5.1-5.1V6.1C3.6,3.3,5,1,8.7,1h6.9c4,0,5.1,2.3,5.1,5.1v23.8
			C20.7,32.8,19.5,35.1,15.6,35.1z"/>
		<path class="st33" d="M15.8,34.8H8.5c-3.3,0-4.8-2.1-4.8-4.8V6c0-2.6,1.3-4.7,4.7-4.7h7.3c3.8,0,4.7,2.1,4.7,4.7v24
			C20.5,32.7,19.2,34.8,15.8,34.8z"/>
	</g>
	<g class="st1">
		<path class="st53" d="M16.1,34.7H8.3c-2.3,0-4.1-1.9-4.1-4.2V7.1c0-2.3,0.3-5.7,3.1-5.7l9.6,0.1c3.2,0,3.4,3.4,3.4,5.7v23.4
			C20.3,32.8,18.4,34.7,16.1,34.7z"/>
		<path class="st54" d="M20,23.3l-0.4,0.1V4.6c0-1.2-1-2.2-2.2-2.2H7c-1.2,0-2.2,1-2.2,2.2v18.8l-0.6-0.1c-0.3,0-0.5,0.1-0.6,0.4
			c0,0.3,0.1,0.5,0.4,0.6l0.7,0.1v5.4C4.9,31,6.9,33,9,33h6.3c2,0,4.2-2,4.2-3.2v-5.4l0.6-0.1c0.3,0,0.4-0.3,0.4-0.6
			C20.5,23.4,20.3,23.3,20,23.3z"/>
		<rect x="9" y="33.3" class="st55" width="6.5" height="0.5"/>
		<g>
			<linearGradient id="SVGID_19_" gradientUnits="userSpaceOnUse" x1="5.6441" y1="22.8358" x2="18.8147" y2="22.8358">
				<stop  offset="3.933388e-02" style="stop-color:#2B485D"/>
				<stop  offset="0.5" style="stop-color:#2B4A5F"/>
				<stop  offset="0.5" style="stop-color:#31667B"/>
			</linearGradient>
			<path class="st56" d="M18.8,23.6c0.1,0.3,0,0.6-0.3,0.7c-0.7,0.3-2.7,0.9-6.3,0.9c-3.5,0-5.6-0.5-6.3-0.8
				c-0.3-0.1-0.4-0.4-0.3-0.7l1-2.7c0.1-0.3,0.4-0.4,0.7-0.4c0.6,0.2,2.3,0.4,4.9,0.4c2.6,0,4.3-0.2,4.9-0.4
				c0.3-0.1,0.6,0.1,0.7,0.4L18.8,23.6z"/>
			<linearGradient id="SVGID_20_" gradientUnits="userSpaceOnUse" x1="5.6753" y1="7.9869" x2="18.846" y2="7.9869">
				<stop  offset="3.933388e-02" style="stop-color:#2B485D"/>
				<stop  offset="0.5" style="stop-color:#2B4A5F"/>
				<stop  offset="0.5" style="stop-color:#31667B"/>
			</linearGradient>
			<path class="st57" d="M18.8,7.7c0.1-0.3,0-0.6-0.3-0.7c-0.7-0.3-2.7-0.8-6.2-0.8C8.8,6.2,6.6,6.6,6,7C5.7,7.1,5.6,7.4,5.7,7.7
				l1,1.7c0.1,0.3,0.4,0.4,0.7,0.4C8,9.6,9.7,9.3,12.2,9.3c2.6,0,4.3,0.2,4.9,0.4c0.3,0.1,0.6-0.1,0.7-0.4L18.8,7.7z"/>
			<path class="st58" d="M6.3,15.9H5.3C5.1,15.9,5,16,5,16.2l0,6.2c0,0,0,0.4,0.2,0.4c0.2,0,1.4-2.9,1.4-2.9
				c0.1-0.2,0.1-0.4,0.1-0.6l0-3C6.6,16,6.5,15.9,6.3,15.9z"/>
			<path class="st58" d="M6.3,14.8H5.2c-0.2,0-0.3-0.1-0.3-0.3l0-6.2c0,0,0-0.4,0.2-0.4c0.2,0,1.4,2.2,1.4,2.2
				c0.1,0.2,0.1,0.4,0.1,0.6l0,3.8C6.6,14.7,6.5,14.8,6.3,14.8z"/>
			<path class="st58" d="M18.2,15.8h1.1c0.2,0,0.3,0.1,0.3,0.3l0,6.2c0,0,0,0.4-0.2,0.4c-0.2,0-1.4-2.9-1.4-2.9
				c-0.1-0.2-0.1-0.4-0.1-0.6l0-3C17.9,16,18.1,15.8,18.2,15.8z"/>
			<path class="st58" d="M18.2,14.8h1.1c0.2,0,0.3-0.1,0.3-0.3l0-6.2c0,0,0-0.4-0.2-0.4c-0.2,0-1.4,2.2-1.4,2.2
				c-0.1,0.2-0.1,0.4-0.1,0.6l0,3.8C18,14.7,18.1,14.8,18.2,14.8z"/>
		</g>
		<g>
			<radialGradient id="SVGID_21_" cx="7.0121" cy="32.8759" r="1.3753" gradientUnits="userSpaceOnUse">
				<stop  offset="0" style="stop-color:#6B724B"/>
				<stop  offset="1" style="stop-color:#30331F"/>
			</radialGradient>
			<path class="st59" d="M8.6,33.8c0,0-1.2,0.5-2.2-0.1c-1.1-0.7-1-1.8-1-1.8s0.3-0.3,0.7,0c0.3,0.2,0.5,0.4,1,0.6
				c0.4,0.2,0.9,0.3,1.1,0.4C8.7,33.2,8.6,33.8,8.6,33.8z"/>
			<ellipse transform="matrix(0.3154 -0.949 0.949 0.3154 -26.6799 29.289)" class="st60" cx="7" cy="33.1" rx="0.3" ry="0.4"/>
		</g>
		<g>
			
				<radialGradient id="SVGID_22_" cx="42.4485" cy="32.8759" r="1.3753" gradientTransform="matrix(-1 0 0 1 59.8356 0)" gradientUnits="userSpaceOnUse">
				<stop  offset="0" style="stop-color:#6B724B"/>
				<stop  offset="1" style="stop-color:#30331F"/>
			</radialGradient>
			<path class="st61" d="M15.8,33.8c0,0,1.2,0.5,2.2-0.1c1.1-0.7,1-1.8,1-1.8s-0.3-0.3-0.7,0c-0.3,0.2-0.5,0.4-1,0.6
				c-0.4,0.2-0.9,0.3-1.1,0.4C15.7,33.2,15.8,33.8,15.8,33.8z"/>
			<ellipse transform="matrix(0.949 -0.3154 0.3154 0.949 -9.5611 7.1919)" class="st60" cx="17.4" cy="33.1" rx="0.4" ry="0.3"/>
		</g>
		<g>
			<path class="st62" d="M7.8,1.4c-0.7,0-1.3,0.2-1.3,0.7c0,0.3,0.8,0.4,1.5,0.2c0.7-0.1,1.1-0.4,1.1-0.5C9.1,1.5,8.5,1.4,7.8,1.4z"
				/>
			<path class="st62" d="M16.7,1.5c-0.6,0-1.2,0.1-1.2,0.4c0,0.1,0.4,0.3,1,0.4c0.6,0.1,1.4,0.1,1.4-0.2C17.9,1.7,17.3,1.5,16.7,1.5
				z"/>
		</g>
		<polygon class="st2" points="9.5,17.3 10.3,16 15.8,16 15.9,17.4 		"/>
		<path class="st63" d="M9.5,17l-0.7,0.7c-0.1,0.1-0.1,0.2-0.1,0.3L9.2,19c0,0.1,0.2,0.2,0.3,0.2l5.8,0l0.5-1.8L15,17L9.5,17z"/>
		<path class="st64" d="M14.8,18h-5c-0.2,0-0.3-0.1-0.3-0.3v-0.6c0-0.2,0.1-0.3,0.3-0.3h5c0.2,0,0.3,0.1,0.3,0.3v0.6
			C15.1,17.9,15,18,14.8,18z"/>
		<g>
			<path class="st65" d="M9.4,30.6V28H8.6v-0.3h1.9V28H9.7v2.6H9.4z"/>
			<path class="st65" d="M10.3,30.6l0.9-2.9h0.3l1,2.9h-0.4l-0.3-0.9h-1l-0.3,0.9H10.3z M11,29.4h0.8l-0.2-0.8
				c-0.1-0.2-0.1-0.4-0.2-0.6c0,0.2-0.1,0.4-0.1,0.6L11,29.4z"/>
			<path class="st65" d="M12.5,30.6l0.9-1.5l-0.8-1.4H13l0.4,0.7c0.1,0.2,0.2,0.3,0.2,0.4c0.1-0.1,0.1-0.2,0.2-0.3l0.5-0.8h0.3
				L13.8,29l0.9,1.5h-0.4l-0.6-1c0-0.1-0.1-0.1-0.1-0.2c-0.1,0.1-0.1,0.2-0.1,0.2l-0.6,1H12.5z"/>
			<path class="st65" d="M15.1,30.6v-2.9h0.3v2.9H15.1z"/>
		</g>
	</g>
</g>
<g id="图层_7" class="st0">
	<path class="st66" d="M23.2,35.9h-4.5c-0.4,0-0.8-0.3-0.8-0.8v-3.5c0-0.4,0.3-0.8,0.8-0.8h4.5c0.4,0,0.8,0.3,0.8,0.8v3.5
		C24,35.6,23.6,35.9,23.2,35.9z"/>
	<g class="st1">
		<path class="st43" d="M20.9,31.5h-1.1c-0.1,0-0.2,0.1-0.2,0.2v3.4c0,0.1,0.1,0.2,0.2,0.2h0.4c0.1,0,0.2-0.1,0.2-0.2v-0.8h0.5
			c0.8,0,1.4-0.6,1.4-1.4C22.3,32.1,21.7,31.5,20.9,31.5z M20.8,33.7h-0.4v-1.6h0.4c0.4,0,0.8,0.4,0.8,0.8
			C21.6,33.3,21.3,33.7,20.8,33.7z"/>
	</g>
</g>
<g id="图层_8" class="st0">
	<path class="st67" d="M23.2,35.9h-4.5c-0.4,0-0.8-0.3-0.8-0.8v-3.5c0-0.4,0.3-0.8,0.8-0.8h4.5c0.4,0,0.8,0.3,0.8,0.8v3.5
		C24,35.6,23.6,35.9,23.2,35.9z"/>
	<path class="st68" d="M23.2,34.7l-2-3c-0.2-0.2-0.4-0.2-0.6,0l-2,3c-0.2,0.2-0.2,0.6,0,0.6h1.4h0.3h1h0.4h1.4
		C23.4,35.2,23.4,34.8,23.2,34.7z M21,32.6c0.3,0,0.5,0.2,0.5,0.5c0,0.3-0.2,0.5-0.5,0.5s-0.5-0.2-0.5-0.5
		C20.5,32.8,20.7,32.6,21,32.6z M20.5,35v-1c0-0.1,0.1-0.2,0.2-0.2h0.6c0.1,0,0.2,0.1,0.2,0.2v1H20.5z"/>
</g>
<g id="图层_10" class="st0">
	<path class="st69" d="M15.2,36H8.6c-3.7,0-6.7-3-6.7-6.7V6.7C1.9,3,4.9,0,8.6,0l6.7,0c3.7,0,6.7,3,6.7,6.7v22.7
		C21.9,33.1,18.9,36,15.2,36z"/>
	<path class="st70" d="M14.2,35H9.6c-3.7,0-6.7-3-6.7-6.7V7.7C2.9,4,5.9,1,9.6,1l4.7,0c3.7,0,6.7,3,6.7,6.7v20.7
		C20.9,32.1,17.9,35,14.2,35z"/>
	<g class="st1">
		<path class="st71" d="M13.3,34h-2.7c-3.7,0-6.7-2-6.7-5.7V8.7C3.9,5,6.9,2,10.6,2h2.7c3.7,0,6.7,3,6.7,6.7v19.7
			C19.9,32.1,16.9,34,13.3,34z"/>
		<path class="st72" d="M6.6,33.1v-2.6H4.3C4.7,31.6,5.5,32.4,6.6,33.1z"/>
		<path class="st72" d="M19.5,30.5h-2.4v2.7C18.2,32.5,19.1,31.6,19.5,30.5z"/>
		<radialGradient id="SVGID_23_" cx="6.6069" cy="4.3528" r="2.1853" gradientUnits="userSpaceOnUse">
			<stop  offset="0" style="stop-color:#6B724B"/>
			<stop  offset="1" style="stop-color:#30331F"/>
		</radialGradient>
		<path class="st73" d="M8.9,6.4V2.3C6.8,2.8,5.1,4.4,4.3,6.4H8.9z"/>
		
			<radialGradient id="SVGID_24_" cx="40.0796" cy="4.3372" r="2.1853" gradientTransform="matrix(-1 0 0 1 57.3121 0)" gradientUnits="userSpaceOnUse">
			<stop  offset="0" style="stop-color:#6B724B"/>
			<stop  offset="1" style="stop-color:#30331F"/>
		</radialGradient>
		<path class="st74" d="M15,6.4V2.3c2.1,0.6,3.8,2.1,4.6,4.2H15z"/>
		<path class="st75" d="M20.4,13l-0.9-0.5c0,0,0,0,0,0V9.2c0-3.4-2.8-6.2-6.2-6.2h-2.7C7.2,3,4.4,5.8,4.4,9.2v3.3c0,0,0,0-0.1,0
			L3.4,13c-0.4,0.2-0.5,0.7-0.3,1.1s0.7,0.5,1.1,0.3l0.2-0.1v13.4c0,3,2.4,5.4,5.4,5.4h4.1c3.1,0,5.5-2.5,5.5-5.5V14.3l0.2,0.1
			c0.4,0.2,0.9,0.1,1.1-0.3S20.7,13.3,20.4,13z"/>
		<linearGradient id="SVGID_25_" gradientUnits="userSpaceOnUse" x1="5.9202" y1="12.8519" x2="17.9202" y2="12.8519">
			<stop  offset="3.933388e-02" style="stop-color:#2B485D"/>
			<stop  offset="0.5" style="stop-color:#2B4A5F"/>
			<stop  offset="0.5" style="stop-color:#31667B"/>
		</linearGradient>
		<path class="st76" d="M16.9,15.5c-0.1,0.5-0.7,0.9-1.2,0.7C15,16.1,13.9,16,12,16c-1.7,0-3,0.2-3.8,0.3c-0.6,0.1-1.1-0.2-1.2-0.7
			l-1-4.3c-0.1-0.4,0.1-0.9,0.6-1.1c0.9-0.4,2.5-0.8,5.2-0.8c2.9,0,4.6,0.5,5.5,0.8c0.5,0.2,0.7,0.6,0.6,1.1L16.9,15.5z"/>
		<linearGradient id="SVGID_26_" gradientUnits="userSpaceOnUse" x1="5.9202" y1="28.2247" x2="17.9202" y2="28.2247">
			<stop  offset="3.933388e-02" style="stop-color:#2B485D"/>
			<stop  offset="0.5" style="stop-color:#2B4A5F"/>
			<stop  offset="0.5" style="stop-color:#31667B"/>
		</linearGradient>
		<path class="st77" d="M17,26.3c-0.1-0.4-0.6-0.6-1.1-0.5c-0.7,0.1-1.9,0.3-3.9,0.3c-1.9,0-3.2-0.2-4-0.3c-0.5-0.1-0.9,0.1-1.1,0.5
			l-1,2.9C5.8,29.5,6,29.8,6.4,30c0.8,0.3,2.5,0.8,5.3,0.8c3,0,4.8-0.5,5.7-0.8c0.4-0.1,0.6-0.5,0.5-0.8L17,26.3z"/>
		<path class="st58" d="M6.3,20.3h-1c-0.1,0-0.3-0.1-0.3-0.3l0-7.3c0,0,0-0.4,0.2-0.4c0.1,0,1.2,4.2,1.2,4.2
			c0.1,0.2,0.1,0.4,0.1,0.6l0,2.8C6.6,20.2,6.4,20.3,6.3,20.3z"/>
		<path class="st58" d="M6.4,20.7h-1c-0.1,0-0.3,0.1-0.3,0.3l0,7.3c0,0,0,0.4,0.2,0.4c0.1,0,1.2-4.2,1.2-4.2
			c0.1-0.2,0.1-0.4,0.1-0.6l0-2.8C6.6,20.9,6.5,20.7,6.4,20.7z"/>
		<path class="st58" d="M17.4,20.4h1c0.1,0,0.3-0.1,0.3-0.3l0-7.3c0,0,0-0.4-0.2-0.4c-0.1,0-1.2,4.2-1.2,4.2
			c-0.1,0.2-0.1,0.4-0.1,0.6l0,2.8C17.1,20.3,17.3,20.4,17.4,20.4z"/>
		<path class="st58" d="M17.3,20.9h1c0.1,0,0.3,0.1,0.3,0.3l0,7.3c0,0,0,0.4-0.2,0.4c-0.1,0-1.2-4.2-1.2-4.2
			c-0.1-0.2-0.1-0.4-0.1-0.6l0-2.8C17.1,21,17.2,20.9,17.3,20.9z"/>
		<rect x="9.5" y="33.3" class="st78" width="4.6" height="0.5"/>
		<path class="st79" d="M14.1,2.9c0,0-1.3-0.1-2.1-0.1c-0.8,0-2.2,0.1-2.2,0.1V2.3c0,0,1.2-0.1,2.1-0.1s2.2,0.1,2.2,0.1V2.9z"/>
	</g>
</g>
<g id="图层_10_x5F_复制" class="st0">
	<path class="st69" d="M15.2,36H8.6c-3.7,0-6.7-3-6.7-6.7V6.7C1.9,3,4.9,0,8.6,0l6.7,0c3.7,0,6.7,3,6.7,6.7v22.7
		C21.9,33.1,18.9,36,15.2,36z"/>
	<path class="st70" d="M14.2,35H9.6c-3.7,0-6.7-3-6.7-6.7V7.7C2.9,4,5.9,1,9.6,1l4.7,0c3.7,0,6.7,3,6.7,6.7v20.7
		C20.9,32.1,17.9,35,14.2,35z"/>
	<g class="st1">
		<path class="st80" d="M13.3,34h-2.7c-3.7,0-6.7-2-6.7-5.7V8.7C3.9,5,6.9,2,10.6,2h2.7c3.7,0,6.7,3,6.7,6.7v19.7
			C19.9,32.1,16.9,34,13.3,34z"/>
		<path class="st72" d="M6.6,33.1v-2.6H4.3C4.7,31.6,5.5,32.4,6.6,33.1z"/>
		<path class="st72" d="M19.5,30.5h-2.4v2.7C18.2,32.5,19.1,31.6,19.5,30.5z"/>
		<radialGradient id="SVGID_27_" cx="6.6069" cy="4.3528" r="2.1853" gradientUnits="userSpaceOnUse">
			<stop  offset="0" style="stop-color:#6B724B"/>
			<stop  offset="1" style="stop-color:#30331F"/>
		</radialGradient>
		<path class="st81" d="M8.9,6.4V2.3C6.8,2.8,5.1,4.4,4.3,6.4H8.9z"/>
		
			<radialGradient id="SVGID_28_" cx="40.0796" cy="4.3372" r="2.1853" gradientTransform="matrix(-1 0 0 1 57.3121 0)" gradientUnits="userSpaceOnUse">
			<stop  offset="0" style="stop-color:#6B724B"/>
			<stop  offset="1" style="stop-color:#30331F"/>
		</radialGradient>
		<path class="st82" d="M15,6.4V2.3c2.1,0.6,3.8,2.1,4.6,4.2H15z"/>
		<path class="st83" d="M20.4,13l-0.9-0.5c0,0,0,0,0,0V9.2c0-3.4-2.8-6.2-6.2-6.2h-2.7C7.2,3,4.4,5.8,4.4,9.2v3.3c0,0,0,0-0.1,0
			L3.4,13c-0.4,0.2-0.5,0.7-0.3,1.1s0.7,0.5,1.1,0.3l0.2-0.1v13.4c0,3,2.4,5.4,5.4,5.4h4.1c3.1,0,5.5-2.5,5.5-5.5V14.3l0.2,0.1
			c0.4,0.2,0.9,0.1,1.1-0.3S20.7,13.3,20.4,13z"/>
		<linearGradient id="SVGID_29_" gradientUnits="userSpaceOnUse" x1="5.9202" y1="12.8519" x2="17.9202" y2="12.8519">
			<stop  offset="3.933388e-02" style="stop-color:#2B485D"/>
			<stop  offset="0.5" style="stop-color:#2B4A5F"/>
			<stop  offset="0.5" style="stop-color:#31667B"/>
		</linearGradient>
		<path class="st84" d="M16.9,15.5c-0.1,0.5-0.7,0.9-1.2,0.7C15,16.1,13.9,16,12,16c-1.7,0-3,0.2-3.8,0.3c-0.6,0.1-1.1-0.2-1.2-0.7
			l-1-4.3c-0.1-0.4,0.1-0.9,0.6-1.1c0.9-0.4,2.5-0.8,5.2-0.8c2.9,0,4.6,0.5,5.5,0.8c0.5,0.2,0.7,0.6,0.6,1.1L16.9,15.5z"/>
		<linearGradient id="SVGID_30_" gradientUnits="userSpaceOnUse" x1="5.9202" y1="28.2247" x2="17.9202" y2="28.2247">
			<stop  offset="3.933388e-02" style="stop-color:#2B485D"/>
			<stop  offset="0.5" style="stop-color:#2B4A5F"/>
			<stop  offset="0.5" style="stop-color:#31667B"/>
		</linearGradient>
		<path class="st85" d="M17,26.3c-0.1-0.4-0.6-0.6-1.1-0.5c-0.7,0.1-1.9,0.3-3.9,0.3c-1.9,0-3.2-0.2-4-0.3c-0.5-0.1-0.9,0.1-1.1,0.5
			l-1,2.9C5.8,29.5,6,29.8,6.4,30c0.8,0.3,2.5,0.8,5.3,0.8c3,0,4.8-0.5,5.7-0.8c0.4-0.1,0.6-0.5,0.5-0.8L17,26.3z"/>
		<path class="st58" d="M6.3,20.3h-1c-0.1,0-0.3-0.1-0.3-0.3l0-7.3c0,0,0-0.4,0.2-0.4c0.1,0,1.2,4.2,1.2,4.2
			c0.1,0.2,0.1,0.4,0.1,0.6l0,2.8C6.6,20.2,6.4,20.3,6.3,20.3z"/>
		<path class="st58" d="M6.4,20.7h-1c-0.1,0-0.3,0.1-0.3,0.3l0,7.3c0,0,0,0.4,0.2,0.4c0.1,0,1.2-4.2,1.2-4.2
			c0.1-0.2,0.1-0.4,0.1-0.6l0-2.8C6.6,20.9,6.5,20.7,6.4,20.7z"/>
		<path class="st58" d="M17.4,20.4h1c0.1,0,0.3-0.1,0.3-0.3l0-7.3c0,0,0-0.4-0.2-0.4c-0.1,0-1.2,4.2-1.2,4.2
			c-0.1,0.2-0.1,0.4-0.1,0.6l0,2.8C17.1,20.3,17.3,20.4,17.4,20.4z"/>
		<path class="st58" d="M17.3,20.9h1c0.1,0,0.3,0.1,0.3,0.3l0,7.3c0,0,0,0.4-0.2,0.4c-0.1,0-1.2-4.2-1.2-4.2
			c-0.1-0.2-0.1-0.4-0.1-0.6l0-2.8C17.1,21,17.2,20.9,17.3,20.9z"/>
		<rect x="9.5" y="33.3" class="st78" width="4.6" height="0.5"/>
		<path class="st79" d="M14.1,2.9c0,0-1.3-0.1-2.1-0.1c-0.8,0-2.2,0.1-2.2,0.1V2.3c0,0,1.2-0.1,2.1-0.1s2.2,0.1,2.2,0.1V2.9z"/>
	</g>
</g>
<g id="图层_10_x5F_复制_2" class="st0">
	<path class="st69" d="M15.2,36H8.6c-3.7,0-6.7-3-6.7-6.7V6.7C1.9,3,4.9,0,8.6,0l6.7,0c3.7,0,6.7,3,6.7,6.7v22.7
		C21.9,33.1,18.9,36,15.2,36z"/>
	<path class="st70" d="M14.2,35H9.6c-3.7,0-6.7-3-6.7-6.7V7.7C2.9,4,5.9,1,9.6,1l4.7,0c3.7,0,6.7,3,6.7,6.7v20.7
		C20.9,32.1,17.9,35,14.2,35z"/>
	<g class="st1">
		<path class="st86" d="M13.3,34h-2.7c-3.7,0-6.7-2-6.7-5.7V8.7C3.9,5,6.9,2,10.6,2h2.7c3.7,0,6.7,3,6.7,6.7v19.7
			C19.9,32.1,16.9,34,13.3,34z"/>
		<path class="st87" d="M6.6,33.1v-2.6H4.3C4.7,31.6,5.5,32.4,6.6,33.1z"/>
		<path class="st87" d="M19.5,30.5h-2.4v2.7C18.2,32.5,19.1,31.6,19.5,30.5z"/>
		<radialGradient id="SVGID_31_" cx="6.6069" cy="4.3528" r="2.1853" gradientUnits="userSpaceOnUse">
			<stop  offset="0" style="stop-color:#6B724B"/>
			<stop  offset="1" style="stop-color:#30331F"/>
		</radialGradient>
		<path class="st88" d="M8.9,6.4V2.3C6.8,2.8,5.1,4.4,4.3,6.4H8.9z"/>
		
			<radialGradient id="SVGID_32_" cx="40.0796" cy="4.3372" r="2.1853" gradientTransform="matrix(-1 0 0 1 57.3121 0)" gradientUnits="userSpaceOnUse">
			<stop  offset="0" style="stop-color:#6B724B"/>
			<stop  offset="1" style="stop-color:#30331F"/>
		</radialGradient>
		<path class="st89" d="M15,6.4V2.3c2.1,0.6,3.8,2.1,4.6,4.2H15z"/>
		<path class="st90" d="M20.4,13l-0.9-0.5c0,0,0,0,0,0V9.2c0-3.4-2.8-6.2-6.2-6.2h-2.7C7.2,3,4.4,5.8,4.4,9.2v3.3c0,0,0,0-0.1,0
			L3.4,13c-0.4,0.2-0.5,0.7-0.3,1.1s0.7,0.5,1.1,0.3l0.2-0.1v13.4c0,3,2.4,5.4,5.4,5.4h4.1c3.1,0,5.5-2.5,5.5-5.5V14.3l0.2,0.1
			c0.4,0.2,0.9,0.1,1.1-0.3S20.7,13.3,20.4,13z"/>
		<linearGradient id="SVGID_33_" gradientUnits="userSpaceOnUse" x1="5.9202" y1="12.8519" x2="17.9202" y2="12.8519">
			<stop  offset="3.933388e-02" style="stop-color:#2B485D"/>
			<stop  offset="0.5" style="stop-color:#2B4A5F"/>
			<stop  offset="0.5" style="stop-color:#31667B"/>
		</linearGradient>
		<path class="st91" d="M16.9,15.5c-0.1,0.5-0.7,0.9-1.2,0.7C15,16.1,13.9,16,12,16c-1.7,0-3,0.2-3.8,0.3c-0.6,0.1-1.1-0.2-1.2-0.7
			l-1-4.3c-0.1-0.4,0.1-0.9,0.6-1.1c0.9-0.4,2.5-0.8,5.2-0.8c2.9,0,4.6,0.5,5.5,0.8c0.5,0.2,0.7,0.6,0.6,1.1L16.9,15.5z"/>
		<linearGradient id="SVGID_34_" gradientUnits="userSpaceOnUse" x1="5.9202" y1="28.2247" x2="17.9202" y2="28.2247">
			<stop  offset="3.933388e-02" style="stop-color:#2B485D"/>
			<stop  offset="0.5" style="stop-color:#2B4A5F"/>
			<stop  offset="0.5" style="stop-color:#31667B"/>
		</linearGradient>
		<path class="st92" d="M17,26.3c-0.1-0.4-0.6-0.6-1.1-0.5c-0.7,0.1-1.9,0.3-3.9,0.3c-1.9,0-3.2-0.2-4-0.3c-0.5-0.1-0.9,0.1-1.1,0.5
			l-1,2.9C5.8,29.5,6,29.8,6.4,30c0.8,0.3,2.5,0.8,5.3,0.8c3,0,4.8-0.5,5.7-0.8c0.4-0.1,0.6-0.5,0.5-0.8L17,26.3z"/>
		<path class="st58" d="M6.3,20.3h-1c-0.1,0-0.3-0.1-0.3-0.3l0-7.3c0,0,0-0.4,0.2-0.4c0.1,0,1.2,4.2,1.2,4.2
			c0.1,0.2,0.1,0.4,0.1,0.6l0,2.8C6.6,20.2,6.4,20.3,6.3,20.3z"/>
		<path class="st58" d="M6.4,20.7h-1c-0.1,0-0.3,0.1-0.3,0.3l0,7.3c0,0,0,0.4,0.2,0.4c0.1,0,1.2-4.2,1.2-4.2
			c0.1-0.2,0.1-0.4,0.1-0.6l0-2.8C6.6,20.9,6.5,20.7,6.4,20.7z"/>
		<path class="st58" d="M17.4,20.4h1c0.1,0,0.3-0.1,0.3-0.3l0-7.3c0,0,0-0.4-0.2-0.4c-0.1,0-1.2,4.2-1.2,4.2
			c-0.1,0.2-0.1,0.4-0.1,0.6l0,2.8C17.1,20.3,17.3,20.4,17.4,20.4z"/>
		<path class="st58" d="M17.3,20.9h1c0.1,0,0.3,0.1,0.3,0.3l0,7.3c0,0,0,0.4-0.2,0.4c-0.1,0-1.2-4.2-1.2-4.2
			c-0.1-0.2-0.1-0.4-0.1-0.6l0-2.8C17.1,21,17.2,20.9,17.3,20.9z"/>
		<rect x="9.5" y="33.3" class="st78" width="4.6" height="0.5"/>
		<path class="st79" d="M14.1,2.9c0,0-1.3-0.1-2.1-0.1c-0.8,0-2.2,0.1-2.2,0.1V2.3c0,0,1.2-0.1,2.1-0.1s2.2,0.1,2.2,0.1V2.9z"/>
	</g>
</g>
<g id="图层_10_x5F_复制_3">
	<path class="st93" d="M15.2,36H8.6c-3.7,0-6.7-3-6.7-6.7V6.7C1.9,3,4.9,0,8.6,0l6.7,0c3.7,0,6.7,3,6.7,6.7v22.7
		C21.9,33.1,18.9,36,15.2,36z"/>
	<path class="st33" d="M14.2,35H9.6c-3.7,0-6.7-3-6.7-6.7V7.7C2.9,4,5.9,1,9.6,1l4.7,0c3.7,0,6.7,3,6.7,6.7v20.7
		C20.9,32.1,17.9,35,14.2,35z"/>
	<path class="st4" d="M13.3,34h-2.7c-3.7,0-6.7-2-6.7-5.7V8.7C3.9,5,6.9,2,10.6,2h2.7c3.7,0,6.7,3,6.7,6.7v19.7
		C19.9,32.1,16.9,34,13.3,34z"/>
	<path class="st8" d="M6.6,33.1v-2.6H4.3C4.7,31.6,5.5,32.4,6.6,33.1z"/>
	<path class="st8" d="M19.5,30.5h-2.4v2.7C18.2,32.5,19.1,31.6,19.5,30.5z"/>
	<path class="st10" d="M8.9,6.4V2.3C6.8,2.8,5.1,4.4,4.3,6.4H8.9z"/>
	<path class="st10" d="M15,6.4V2.3c2.1,0.6,3.8,2.1,4.6,4.2H15z"/>
	<path class="st7" d="M20.4,13l-0.9-0.5c0,0,0,0,0,0V9.2c0-3.4-2.8-6.2-6.2-6.2h-2.7C7.2,3,4.4,5.8,4.4,9.2v3.3c0,0,0,0-0.1,0
		L3.4,13c-0.4,0.2-0.5,0.7-0.3,1.1s0.7,0.5,1.1,0.3l0.2-0.1v13.4c0,3,2.4,5.4,5.4,5.4h4.1c3.1,0,5.5-2.5,5.5-5.5V14.3l0.2,0.1
		c0.4,0.2,0.9,0.1,1.1-0.3S20.7,13.3,20.4,13z"/>
	<linearGradient id="SVGID_35_" gradientUnits="userSpaceOnUse" x1="5.9202" y1="12.8519" x2="17.9202" y2="12.8519">
		<stop  offset="0.5" style="stop-color:#6D6D68"/>
		<stop  offset="0.5" style="stop-color:#919190"/>
	</linearGradient>
	<path class="st94" d="M16.9,15.5c-0.1,0.5-0.7,0.9-1.2,0.7C15,16.1,13.9,16,12,16c-1.7,0-3,0.2-3.8,0.3c-0.6,0.1-1.1-0.2-1.2-0.7
		l-1-4.3c-0.1-0.4,0.1-0.9,0.6-1.1c0.9-0.4,2.5-0.8,5.2-0.8c2.9,0,4.6,0.5,5.5,0.8c0.5,0.2,0.7,0.6,0.6,1.1L16.9,15.5z"/>
	<linearGradient id="SVGID_36_" gradientUnits="userSpaceOnUse" x1="5.9202" y1="28.2247" x2="17.9202" y2="28.2247">
		<stop  offset="0.5" style="stop-color:#6D6D68"/>
		<stop  offset="0.5" style="stop-color:#919190"/>
	</linearGradient>
	<path class="st95" d="M17,26.3c-0.1-0.4-0.6-0.6-1.1-0.5c-0.7,0.1-1.9,0.3-3.9,0.3c-1.9,0-3.2-0.2-4-0.3c-0.5-0.1-0.9,0.1-1.1,0.5
		l-1,2.9C5.8,29.5,6,29.8,6.4,30c0.8,0.3,2.5,0.8,5.3,0.8c3,0,4.8-0.5,5.7-0.8c0.4-0.1,0.6-0.5,0.5-0.8L17,26.3z"/>
	<path class="st8" d="M6.3,20.3h-1c-0.1,0-0.3-0.1-0.3-0.3l0-7.3c0,0,0-0.4,0.2-0.4c0.1,0,1.2,4.2,1.2,4.2c0.1,0.2,0.1,0.4,0.1,0.6
		l0,2.8C6.6,20.2,6.4,20.3,6.3,20.3z"/>
	<path class="st8" d="M6.4,20.7h-1c-0.1,0-0.3,0.1-0.3,0.3l0,7.3c0,0,0,0.4,0.2,0.4c0.1,0,1.2-4.2,1.2-4.2c0.1-0.2,0.1-0.4,0.1-0.6
		l0-2.8C6.6,20.9,6.5,20.7,6.4,20.7z"/>
	<path class="st8" d="M17.4,20.4h1c0.1,0,0.3-0.1,0.3-0.3l0-7.3c0,0,0-0.4-0.2-0.4c-0.1,0-1.2,4.2-1.2,4.2c-0.1,0.2-0.1,0.4-0.1,0.6
		l0,2.8C17.1,20.3,17.3,20.4,17.4,20.4z"/>
	<path class="st8" d="M17.3,20.9h1c0.1,0,0.3,0.1,0.3,0.3l0,7.3c0,0,0,0.4-0.2,0.4c-0.1,0-1.2-4.2-1.2-4.2c-0.1-0.2-0.1-0.4-0.1-0.6
		l0-2.8C17.1,21,17.2,20.9,17.3,20.9z"/>
	<rect x="9.5" y="33.3" class="st78" width="4.6" height="0.5"/>
	<path class="st79" d="M14.1,2.9c0,0-1.3-0.1-2.1-0.1c-0.8,0-2.2,0.1-2.2,0.1V2.3c0,0,1.2-0.1,2.1-0.1s2.2,0.1,2.2,0.1V2.9z"/>
</g>
</svg>
